<svg xmlns="http://www.w3.org/2000/svg" width="1991.07" height="1189.43" viewBox="0 0 1991.07 1189.43">
  <defs>
    <style>
      .a {
        fill: #ffeead;
      }

      .b {
        fill: #0e9aa7;
      }

      .c {
        fill: #ff6f69;
      }

      .d, .e {
        fill: none;
        stroke-miterlimit: 10;
        stroke-width: 6px;
      }

      .d {
        stroke: #000;
      }

      .e {
        stroke: #ffeead;
      }
    </style>
  </defs>
  <title>pattern</title>
  <g>
    <polygon points="182.03 66.05 140.15 105.8 195.51 122.19 182.03 66.05"/>
    <polygon class="a" points="177.03 61.05 135.15 100.8 190.51 117.19 177.03 61.05"/>
  </g>
  <g>
    <polygon points="66.02 205.85 12.77 228.16 58.72 263.12 66.02 205.85"/>
    <polygon class="a" points="63.12 199.41 9.87 221.71 55.81 256.68 63.12 199.41"/>
  </g>
  <g>
    <path d="M45.08,14v6a19.05,19.05,0,0,1,3.34,37.81,19.5,19.5,0,0,1-3.39.3A19.06,19.06,0,0,1,41.69,20.3a19.5,19.5,0,0,1,3.39-.3V14m0,0a26.08,26.08,0,0,0-4.45.39A25.06,25.06,0,0,0,45,64.11a25.87,25.87,0,0,0,4.44-.39A25.06,25.06,0,0,0,45.08,14Z" transform="translate(-6 45.68)"/>
    <path class="b" d="M40.05,18a19.06,19.06,0,1,1-19,19,19.08,19.08,0,0,1,19-19m0-6a25.06,25.06,0,1,0,25.06,25A25.06,25.06,0,0,0,40.05,12Z" transform="translate(-6 45.68)"/>
  </g>
  <g>
    <rect x="43.82" y="88.62" width="72" height="15" transform="translate(-51.1 139.3) rotate(-49.15)"/>
    <rect class="c" x="43.18" y="84.38" width="72" height="15" transform="translate(-48.11 137.34) rotate(-49.15)"/>
  </g>
  <g>
    <rect x="208.18" y="72.54" width="72" height="15" transform="translate(43.66 293.62) rotate(-58.95)"/>
    <rect class="c" x="206.82" y="68.46" width="72" height="15" transform="translate(46.49 290.49) rotate(-58.95)"/>
  </g>
  <g>
    <polygon class="d" points="222.05 201.83 197.77 250.98 263 238.28 222.05 201.83"/>
    <polygon class="e" points="215.5 199.86 191.22 249.01 256.45 236.31 215.5 199.86"/>
  </g>
  <g>
    <circle cx="141.91" cy="182.07" r="25.05"/>
    <circle class="b" cx="137.18" cy="180.17" r="25.05"/>
  </g>
  <g>
    <rect x="94.18" y="234.54" width="72" height="15" transform="translate(-150.32 274.4) rotate(-58.95)"/>
    <rect class="c" x="92.82" y="230.46" width="72" height="15" transform="translate(-147.49 271.26) rotate(-58.95)"/>
  </g>
  <g>
    <g>
      <polygon points="464.03 139.05 422.15 178.8 477.51 195.19 464.03 139.05"/>
      <polygon class="a" points="459.03 134.05 417.15 173.8 472.51 190.19 459.03 134.05"/>
    </g>
    <g>
      <polygon points="348.02 278.85 294.77 301.16 340.72 336.12 348.02 278.85"/>
      <polygon class="a" points="345.12 272.4 291.87 294.71 337.81 329.68 345.12 272.4"/>
    </g>
    <g>
      <path d="M327.08,93a19.05,19.05,0,0,1,3.34,37.81,19.5,19.5,0,0,1-3.39.3,19.06,19.06,0,0,1-3.34-37.81,19.5,19.5,0,0,1,3.39-.3h0m0-6a26.08,26.08,0,0,0-4.45.39,25.06,25.06,0,0,0,4.4,49.72,25.87,25.87,0,0,0,4.44-.39A25.06,25.06,0,0,0,327.08,87Z" transform="translate(-6 45.68)"/>
      <path class="b" d="M322.05,91a19.06,19.06,0,1,1-19.05,19,19.08,19.08,0,0,1,19.05-19m0-6a25.06,25.06,0,1,0,25.06,25,25.06,25.06,0,0,0-25.06-25Z" transform="translate(-6 45.68)"/>
    </g>
    <g>
      <rect x="325.82" y="161.62" width="72" height="15" transform="translate(-8.78 377.85) rotate(-49.15)"/>
      <rect class="c" x="325.18" y="157.38" width="72" height="15" transform="translate(-5.79 375.89) rotate(-49.15)"/>
    </g>
    <g>
      <rect x="490.18" y="145.54" width="72" height="15" transform="translate(117.67 570.56) rotate(-58.95)"/>
      <rect class="c" x="488.82" y="141.46" width="72" height="15" transform="translate(120.5 567.42) rotate(-58.95)"/>
    </g>
    <g>
      <polygon class="d" points="504.05 274.83 479.77 323.98 545 311.28 504.05 274.83"/>
      <polygon class="e" points="497.5 272.86 473.23 322.01 538.45 309.31 497.5 272.86"/>
    </g>
    <g>
      <circle cx="423.91" cy="255.07" r="25.05"/>
      <circle class="b" cx="419.18" cy="253.17" r="25.05"/>
    </g>
    <g>
      <rect x="376.18" y="307.54" width="72" height="15" transform="translate(-76.32 551.34) rotate(-58.95)"/>
      <rect class="c" x="374.82" y="303.46" width="72" height="15" transform="translate(-73.49 548.2) rotate(-58.95)"/>
    </g>
  </g>
  <g>
    <g>
      <polygon points="177.03 355.05 135.15 394.8 190.51 411.19 177.03 355.05"/>
      <polygon class="a" points="172.03 350.05 130.15 389.8 185.51 406.19 172.03 350.05"/>
    </g>
    <g>
      <polygon points="61.02 494.85 7.77 517.16 53.72 552.12 61.02 494.85"/>
      <polygon class="a" points="58.12 488.4 4.87 510.71 50.81 545.68 58.12 488.4"/>
    </g>
    <g>
      <path d="M40.08,309a19.05,19.05,0,0,1,3.34,37.81,19.5,19.5,0,0,1-3.39.3,19.06,19.06,0,0,1-3.34-37.81,19.5,19.5,0,0,1,3.39-.3h0m0-6a26.08,26.08,0,0,0-4.45.39A25.06,25.06,0,0,0,40,353.11a25.87,25.87,0,0,0,4.44-.39A25.06,25.06,0,0,0,40.08,303Z" transform="translate(-6 45.68)"/>
      <path class="b" d="M35.05,307a19.06,19.06,0,1,1-19,19.05,19.08,19.08,0,0,1,19-19.05m0-6a25.06,25.06,0,1,0,25.06,25.05A25.06,25.06,0,0,0,35.05,301Z" transform="translate(-6 45.68)"/>
    </g>
    <g>
      <rect x="38.82" y="377.62" width="72" height="15" transform="translate(-271.42 235.48) rotate(-49.15)"/>
      <rect class="c" x="38.18" y="373.38" width="72" height="15" transform="translate(-268.43 233.52) rotate(-49.15)"/>
    </g>
    <g>
      <rect x="203.18" y="361.54" width="72" height="15" transform="translate(-206.35 429.27) rotate(-58.95)"/>
      <rect class="c" x="201.82" y="357.46" width="72" height="15" transform="translate(-203.52 426.13) rotate(-58.95)"/>
    </g>
    <g>
      <polygon class="d" points="217.05 490.83 192.77 539.98 258 527.28 217.05 490.83"/>
      <polygon class="e" points="210.5 488.86 186.22 538.01 251.45 525.3 210.5 488.86"/>
    </g>
    <g>
      <circle cx="136.91" cy="471.07" r="25.05"/>
      <circle class="b" cx="132.18" cy="469.17" r="25.05"/>
    </g>
    <g>
      <rect x="89.18" y="523.54" width="72" height="15" transform="translate(-400.33 410.05) rotate(-58.95)"/>
      <rect class="c" x="87.82" y="519.46" width="72" height="15" transform="translate(-397.5 406.91) rotate(-58.95)"/>
    </g>
  </g>
  <g>
    <g>
      <polygon points="463.03 424.05 421.15 463.8 476.51 480.19 463.03 424.05"/>
      <polygon class="a" points="458.03 419.05 416.15 458.8 471.51 475.19 458.03 419.05"/>
    </g>
    <g>
      <polygon points="347.02 563.85 293.77 586.16 339.72 621.12 347.02 563.85"/>
      <polygon class="a" points="344.12 557.4 290.87 579.71 336.81 614.68 344.12 557.4"/>
    </g>
    <g>
      <path d="M326.08,378a19.05,19.05,0,0,1,3.34,37.81,19.5,19.5,0,0,1-3.39.3,19.06,19.06,0,0,1-3.34-37.81,19.5,19.5,0,0,1,3.39-.3h0m0-6a26.08,26.08,0,0,0-4.45.39,25.06,25.06,0,0,0,4.4,49.72,25.87,25.87,0,0,0,4.44-.39A25.06,25.06,0,0,0,326.08,372Z" transform="translate(-6 45.68)"/>
      <path class="b" d="M321.05,376A19.06,19.06,0,1,1,302,395.05,19.08,19.08,0,0,1,321.05,376m0-6a25.06,25.06,0,1,0,25.06,25.05A25.06,25.06,0,0,0,321.05,370Z" transform="translate(-6 45.68)"/>
    </g>
    <g>
      <rect x="324.82" y="446.62" width="72" height="15" transform="translate(-224.69 475.67) rotate(-49.15)"/>
      <rect class="c" x="324.18" y="442.38" width="72" height="15" transform="translate(-221.71 473.71) rotate(-49.15)"/>
    </g>
    <g>
      <rect x="489.18" y="430.54" width="72" height="15" transform="translate(-126.98 707.7) rotate(-58.95)"/>
      <rect class="c" x="487.82" y="426.46" width="72" height="15" transform="translate(-124.15 704.56) rotate(-58.95)"/>
    </g>
    <g>
      <polygon class="d" points="503.05 559.83 478.77 608.98 544 596.28 503.05 559.83"/>
      <polygon class="e" points="496.5 557.86 472.23 607.01 537.45 594.3 496.5 557.86"/>
    </g>
    <g>
      <circle cx="422.91" cy="540.07" r="25.05"/>
      <circle class="b" cx="418.18" cy="538.17" r="25.05"/>
    </g>
    <g>
      <rect x="375.18" y="592.54" width="72" height="15" transform="translate(-320.96 688.48) rotate(-58.95)"/>
      <rect class="c" x="373.82" y="588.46" width="72" height="15" transform="translate(-318.13 685.34) rotate(-58.95)"/>
    </g>
  </g>
  <g>
    <g>
      <polygon points="749.03 70.05 707.15 109.8 762.51 126.19 749.03 70.05"/>
      <polygon class="a" points="744.03 65.05 702.15 104.8 757.51 121.19 744.03 65.05"/>
    </g>
    <g>
      <polygon points="633.02 209.85 579.77 232.16 625.72 267.12 633.02 209.85"/>
      <polygon class="a" points="630.12 203.41 576.87 225.71 622.82 260.68 630.12 203.41"/>
    </g>
    <g>
      <path d="M612.08,24a19.05,19.05,0,0,1,3.34,37.81,19.5,19.5,0,0,1-3.39.3,19.06,19.06,0,0,1-3.34-37.81,19.5,19.5,0,0,1,3.39-.3h0m0-6a26.08,26.08,0,0,0-4.45.39A25.06,25.06,0,0,0,612,68.11a25.87,25.87,0,0,0,4.44-.39A25.06,25.06,0,0,0,612.08,18Z" transform="translate(-6 45.68)"/>
      <path class="b" d="M607.05,22a19.06,19.06,0,1,1-19,19,19.08,19.08,0,0,1,19-19m0-6a25.06,25.06,0,1,0,25.06,25,25.06,25.06,0,0,0-25.06-25Z" transform="translate(-6 45.68)"/>
    </g>
    <g>
      <rect x="610.82" y="92.62" width="72" height="15" transform="translate(141.98 569.55) rotate(-49.15)"/>
      <rect class="c" x="610.18" y="88.38" width="72" height="15" transform="translate(144.97 567.59) rotate(-49.15)"/>
    </g>
    <g>
      <rect x="775.18" y="76.54" width="72" height="15" transform="translate(314.78 781.31) rotate(-58.95)"/>
      <rect class="c" x="773.82" y="72.46" width="72" height="15" transform="translate(317.6 778.17) rotate(-58.95)"/>
    </g>
    <g>
      <polygon class="d" points="789.05 205.83 764.77 254.98 830 242.28 789.05 205.83"/>
      <polygon class="e" points="782.5 203.86 758.23 253.01 823.45 240.31 782.5 203.86"/>
    </g>
    <g>
      <circle cx="708.91" cy="186.07" r="25.05"/>
      <circle class="b" cx="704.18" cy="184.17" r="25.05"/>
    </g>
    <g>
      <rect x="661.18" y="238.54" width="72" height="15" transform="translate(120.79 762.09) rotate(-58.95)"/>
      <rect class="c" x="659.82" y="234.46" width="72" height="15" transform="translate(123.62 758.95) rotate(-58.95)"/>
    </g>
  </g>
  <g>
    <g>
      <polygon points="754.03 355.05 712.15 394.8 767.51 411.19 754.03 355.05"/>
      <polygon class="a" points="749.03 350.05 707.15 389.8 762.51 406.19 749.03 350.05"/>
    </g>
    <g>
      <polygon points="638.02 494.85 584.77 517.16 630.72 552.12 638.02 494.85"/>
      <polygon class="a" points="635.12 488.4 581.87 510.71 627.82 545.68 635.12 488.4"/>
    </g>
    <g>
      <path d="M617.08,309a19.05,19.05,0,0,1,3.34,37.81,19.5,19.5,0,0,1-3.39.3,19.06,19.06,0,0,1-3.34-37.81,19.5,19.5,0,0,1,3.39-.3h0m0-6a26.08,26.08,0,0,0-4.45.39,25.06,25.06,0,0,0,4.4,49.72,25.87,25.87,0,0,0,4.44-.39A25.06,25.06,0,0,0,617.08,303Z" transform="translate(-6 45.68)"/>
      <path class="b" d="M612.05,307a19.06,19.06,0,1,1-19,19.05,19.08,19.08,0,0,1,19-19.05m0-6a25.06,25.06,0,1,0,25.06,25.05A25.06,25.06,0,0,0,612.05,301Z" transform="translate(-6 45.68)"/>
    </g>
    <g>
      <rect x="615.82" y="377.62" width="72" height="15" transform="translate(-71.85 671.91) rotate(-49.15)"/>
      <rect class="c" x="615.18" y="373.38" width="72" height="15" transform="translate(-68.87 669.95) rotate(-49.15)"/>
    </g>
    <g>
      <rect x="780.18" y="361.54" width="72" height="15" transform="translate(73.04 923.59) rotate(-58.95)"/>
      <rect class="c" x="778.82" y="357.46" width="72" height="15" transform="translate(75.86 920.45) rotate(-58.95)"/>
    </g>
    <g>
      <polygon class="d" points="794.05 490.83 769.77 539.98 835 527.28 794.05 490.83"/>
      <polygon class="e" points="787.5 488.86 763.23 538.01 828.45 525.3 787.5 488.86"/>
    </g>
    <g>
      <circle cx="713.91" cy="471.07" r="25.05"/>
      <circle class="b" cx="709.18" cy="469.17" r="25.05"/>
    </g>
    <g>
      <rect x="666.18" y="523.54" width="72" height="15" transform="translate(-120.95 904.37) rotate(-58.95)"/>
      <rect class="c" x="664.82" y="519.46" width="72" height="15" transform="translate(-118.12 901.23) rotate(-58.95)"/>
    </g>
  </g>
  <g>
    <g>
      <polygon points="177.03 639.05 135.15 678.8 190.51 695.19 177.03 639.05"/>
      <polygon class="a" points="172.03 634.05 130.15 673.8 185.51 690.19 172.03 634.05"/>
    </g>
    <g>
      <polygon points="61.02 778.85 7.77 801.16 53.72 836.12 61.02 778.85"/>
      <polygon class="a" points="58.12 772.4 4.87 794.71 50.81 829.68 58.12 772.4"/>
    </g>
    <g>
      <path d="M40.08,593a19.05,19.05,0,0,1,3.34,37.81,19.5,19.5,0,0,1-3.39.3,19.06,19.06,0,0,1-3.34-37.81,19.5,19.5,0,0,1,3.39-.3h0m0-6a26.08,26.08,0,0,0-4.45.39A25.06,25.06,0,0,0,40,637.11a25.87,25.87,0,0,0,4.44-.39A25.06,25.06,0,0,0,40.08,587Z" transform="translate(-6 45.68)"/>
      <path class="b" d="M35.05,591a19.06,19.06,0,1,1-19,19,19.08,19.08,0,0,1,19-19m0-6a25.06,25.06,0,1,0,25.06,25,25.06,25.06,0,0,0-25.06-25Z" transform="translate(-6 45.68)"/>
    </g>
    <g>
      <rect x="38.82" y="661.62" width="72" height="15" transform="translate(-486.23 333.7) rotate(-49.15)"/>
      <rect class="c" x="38.18" y="657.38" width="72" height="15" transform="translate(-483.24 331.74) rotate(-49.15)"/>
    </g>
    <g>
      <rect x="203.18" y="645.54" width="72" height="15" transform="translate(-449.65 566.78) rotate(-58.95)"/>
      <rect class="c" x="201.82" y="641.46" width="72" height="15" transform="translate(-446.82 563.65) rotate(-58.95)"/>
    </g>
    <g>
      <polygon class="d" points="217.05 774.83 192.77 823.98 258 811.28 217.05 774.83"/>
      <polygon class="e" points="210.5 772.86 186.22 822.01 251.45 809.3 210.5 772.86"/>
    </g>
    <g>
      <circle cx="136.91" cy="755.07" r="25.05"/>
      <circle class="b" cx="132.18" cy="753.17" r="25.05"/>
    </g>
    <g>
      <rect x="89.18" y="807.54" width="72" height="15" transform="translate(-643.63 547.56) rotate(-58.95)"/>
      <rect class="c" x="87.82" y="803.46" width="72" height="15" transform="translate(-640.8 544.42) rotate(-58.95)"/>
    </g>
  </g>
  <g>
    <g>
      <polygon points="466.03 709.05 424.15 748.8 479.51 765.19 466.03 709.05"/>
      <polygon class="a" points="461.03 704.05 419.15 743.8 474.51 760.19 461.03 704.05"/>
    </g>
    <g>
      <polygon points="350.02 848.85 296.77 871.16 342.72 906.12 350.02 848.85"/>
      <polygon class="a" points="347.12 842.4 293.87 864.71 339.81 899.68 347.12 842.4"/>
    </g>
    <g>
      <path d="M329.08,663a19.05,19.05,0,0,1,3.34,37.81,19.5,19.5,0,0,1-3.39.3,19.06,19.06,0,0,1-3.34-37.81,19.5,19.5,0,0,1,3.39-.3h0m0-6a26.08,26.08,0,0,0-4.45.39,25.06,25.06,0,0,0,4.4,49.72,25.87,25.87,0,0,0,4.44-.39A25.06,25.06,0,0,0,329.08,657Z" transform="translate(-6 45.68)"/>
      <path class="b" d="M324.05,661a19.06,19.06,0,1,1-19.05,19,19.08,19.08,0,0,1,19.05-19m0-6a25.06,25.06,0,1,0,25.06,25,25.06,25.06,0,0,0-25.06-25Z" transform="translate(-6 45.68)"/>
    </g>
    <g>
      <rect x="327.82" y="731.62" width="72" height="15" transform="translate(-439.22 576.51) rotate(-49.15)"/>
      <rect class="c" x="327.18" y="727.38" width="72" height="15" transform="translate(-436.24 574.55) rotate(-49.15)"/>
    </g>
    <g>
      <rect x="492.18" y="715.54" width="72" height="15" transform="translate(-369.69 848.27) rotate(-58.95)"/>
      <rect class="c" x="490.82" y="711.46" width="72" height="15" transform="translate(-366.86 845.13) rotate(-58.95)"/>
    </g>
    <g>
      <polygon class="d" points="506.05 844.83 481.77 893.98 547 881.28 506.05 844.83"/>
      <polygon class="e" points="499.5 842.86 475.23 892.01 540.45 879.3 499.5 842.86"/>
    </g>
    <g>
      <circle cx="425.91" cy="825.07" r="25.05"/>
      <circle class="b" cx="421.18" cy="823.17" r="25.05"/>
    </g>
    <g>
      <rect x="378.18" y="877.54" width="72" height="15" transform="translate(-563.67 829.04) rotate(-58.95)"/>
      <rect class="c" x="376.82" y="873.46" width="72" height="15" transform="translate(-560.84 825.9) rotate(-58.95)"/>
    </g>
  </g>
  <g>
    <g>
      <polygon points="751.03 639.05 709.15 678.8 764.51 695.19 751.03 639.05"/>
      <polygon class="a" points="746.03 634.05 704.15 673.8 759.51 690.19 746.03 634.05"/>
    </g>
    <g>
      <polygon points="635.02 778.85 581.77 801.16 627.72 836.12 635.02 778.85"/>
      <polygon class="a" points="632.12 772.4 578.87 794.71 624.82 829.68 632.12 772.4"/>
    </g>
    <g>
      <path d="M614.08,593a19.05,19.05,0,0,1,3.34,37.81,19.5,19.5,0,0,1-3.39.3,19.06,19.06,0,0,1-3.34-37.81,19.5,19.5,0,0,1,3.39-.3h0m0-6a26.08,26.08,0,0,0-4.45.39,25.06,25.06,0,0,0,4.4,49.72,25.87,25.87,0,0,0,4.44-.39A25.06,25.06,0,0,0,614.08,587Z" transform="translate(-6 45.68)"/>
      <path class="b" d="M609.05,591a19.06,19.06,0,1,1-19,19,19.08,19.08,0,0,1,19-19m0-6a25.06,25.06,0,1,0,25.06,25,25.06,25.06,0,0,0-25.06-25Z" transform="translate(-6 45.68)"/>
    </g>
    <g>
      <rect x="612.82" y="661.62" width="72" height="15" transform="translate(-287.7 767.86) rotate(-49.15)"/>
      <rect class="c" x="612.18" y="657.38" width="72" height="15" transform="translate(-284.72 765.9) rotate(-49.15)"/>
    </g>
    <g>
      <rect x="777.18" y="645.54" width="72" height="15" transform="translate(-171.72 1058.53) rotate(-58.95)"/>
      <rect class="c" x="775.82" y="641.46" width="72" height="15" transform="translate(-168.89 1055.39) rotate(-58.95)"/>
    </g>
    <g>
      <polygon class="d" points="791.05 774.83 766.77 823.98 832 811.28 791.05 774.83"/>
      <polygon class="e" points="784.5 772.86 760.23 822.01 825.45 809.3 784.5 772.86"/>
    </g>
    <g>
      <circle cx="710.91" cy="755.07" r="25.05"/>
      <circle class="b" cx="706.18" cy="753.17" r="25.05"/>
    </g>
    <g>
      <rect x="663.18" y="807.54" width="72" height="15" transform="translate(-365.71 1039.31) rotate(-58.95)"/>
      <rect class="c" x="661.82" y="803.46" width="72" height="15" transform="translate(-362.88 1036.17) rotate(-58.95)"/>
    </g>
  </g>
  <g>
    <g>
      <polygon points="173.03 931.05 131.15 970.8 186.51 987.19 173.03 931.05"/>
      <polygon class="a" points="168.03 926.05 126.15 965.8 181.51 982.19 168.03 926.05"/>
    </g>
    <g>
      <polygon points="57.02 1070.85 3.77 1093.16 49.72 1128.12 57.02 1070.85"/>
      <polygon class="a" points="54.12 1064.4 0.87 1086.71 46.81 1121.68 54.12 1064.4"/>
    </g>
    <g>
      <path d="M36.08,885a19.05,19.05,0,0,1,3.34,37.81,19.5,19.5,0,0,1-3.39.3,19.06,19.06,0,0,1-3.34-37.81,19.5,19.5,0,0,1,3.39-.3h0m0-6a26.08,26.08,0,0,0-4.45.39A25.06,25.06,0,0,0,36,929.11a25.87,25.87,0,0,0,4.44-.39A25.06,25.06,0,0,0,36.08,879Z" transform="translate(-6 45.68)"/>
      <path class="b" d="M31.05,883a19.06,19.06,0,1,1-19,19,19.08,19.08,0,0,1,19.05-19m0-6a25.06,25.06,0,1,0,25.06,25,25.06,25.06,0,0,0-25.06-25Z" transform="translate(-6 45.68)"/>
    </g>
    <g>
      <rect x="34.82" y="953.62" width="72" height="15" transform="translate(-708.48 431.67) rotate(-49.15)"/>
      <rect class="c" x="34.18" y="949.38" width="72" height="15" transform="translate(-705.49 429.71) rotate(-49.15)"/>
    </g>
    <g>
      <rect x="199.18" y="937.54" width="72" height="15" transform="translate(-701.74 704.74) rotate(-58.95)"/>
      <rect class="c" x="197.82" y="933.46" width="72" height="15" transform="translate(-698.92 701.6) rotate(-58.95)"/>
    </g>
    <g>
      <polygon class="d" points="213.05 1066.83 188.77 1115.98 254 1103.28 213.05 1066.83"/>
      <polygon class="e" points="206.5 1064.86 182.22 1114.01 247.45 1101.31 206.5 1064.86"/>
    </g>
    <g>
      <circle cx="132.91" cy="1047.07" r="25.05"/>
      <circle class="b" cx="128.18" cy="1045.17" r="25.05"/>
    </g>
    <g>
      <rect x="85.18" y="1099.54" width="72" height="15" transform="translate(-895.73 685.52) rotate(-58.95)"/>
      <rect class="c" x="83.82" y="1095.46" width="72" height="15" transform="translate(-892.9 682.38) rotate(-58.95)"/>
    </g>
  </g>
  <g>
    <polygon points="463.03 1000.05 421.15 1039.8 476.51 1056.19 463.03 1000.05"/>
    <polygon class="a" points="458.03 995.05 416.15 1034.8 471.51 1051.19 458.03 995.05"/>
  </g>
  <g>
    <path d="M326.08,954a19.05,19.05,0,0,1,3.34,37.81,19.5,19.5,0,0,1-3.39.3,19.06,19.06,0,0,1-3.34-37.81,19.5,19.5,0,0,1,3.39-.3h0m0-6a26.08,26.08,0,0,0-4.45.39,25.06,25.06,0,0,0,4.4,49.72,25.87,25.87,0,0,0,4.44-.39A25.06,25.06,0,0,0,326.08,948Z" transform="translate(-6 45.68)"/>
    <path class="b" d="M321.05,952a19.06,19.06,0,1,1-19.05,19,19.08,19.08,0,0,1,19.05-19m0-6a25.06,25.06,0,1,0,25.06,25,25.06,25.06,0,0,0-25.06-25Z" transform="translate(-6 45.68)"/>
  </g>
  <g>
    <rect x="324.82" y="1022.62" width="72" height="15" transform="translate(-660.37 674.88) rotate(-49.15)"/>
    <rect class="c" x="324.18" y="1018.38" width="72" height="15" transform="translate(-657.38 672.92) rotate(-49.15)"/>
  </g>
  <g>
    <rect x="489.18" y="1006.54" width="72" height="15" transform="translate(-620.44 986.6) rotate(-58.95)"/>
    <rect class="c" x="487.82" y="1002.46" width="72" height="15" transform="translate(-617.61 983.46) rotate(-58.95)"/>
  </g>
  <g>
    <circle cx="422.91" cy="1116.07" r="25.05"/>
    <circle class="b" cx="418.18" cy="1114.17" r="25.05"/>
  </g>
  <g>
    <g>
      <polygon points="749.03 927.05 707.15 966.8 762.51 983.19 749.03 927.05"/>
      <polygon class="a" points="744.03 922.05 702.15 961.8 757.51 978.19 744.03 922.05"/>
    </g>
    <g>
      <polygon points="633.02 1066.85 579.77 1089.16 625.72 1124.12 633.02 1066.85"/>
      <polygon class="a" points="630.12 1060.4 576.87 1082.71 622.82 1117.68 630.12 1060.4"/>
    </g>
    <g>
      <path d="M612.08,881a19.05,19.05,0,0,1,3.34,37.81,19.5,19.5,0,0,1-3.39.3,19.06,19.06,0,0,1-3.34-37.81,19.5,19.5,0,0,1,3.39-.3h0m0-6a26.08,26.08,0,0,0-4.45.39,25.06,25.06,0,0,0,4.4,49.72,25.87,25.87,0,0,0,4.44-.39A25.06,25.06,0,0,0,612.08,875Z" transform="translate(-6 45.68)"/>
      <path class="b" d="M607.05,879a19.06,19.06,0,1,1-19,19,19.08,19.08,0,0,1,19-19m0-6a25.06,25.06,0,1,0,25.06,25,25.06,25.06,0,0,0-25.06-25Z" transform="translate(-6 45.68)"/>
    </g>
    <g>
      <rect x="610.82" y="949.62" width="72" height="15" transform="translate(-506.23 865.96) rotate(-49.15)"/>
      <rect class="c" x="610.18" y="945.38" width="72" height="15" transform="translate(-503.25 864) rotate(-49.15)"/>
    </g>
    <g>
      <rect x="775.18" y="933.54" width="72" height="15" transform="translate(-419.42 1196.27) rotate(-58.95)"/>
      <rect class="c" x="773.82" y="929.46" width="72" height="15" transform="translate(-416.59 1193.13) rotate(-58.95)"/>
    </g>
    <g>
      <polygon class="d" points="789.05 1062.83 764.77 1111.98 830 1099.28 789.05 1062.83"/>
      <polygon class="e" points="782.5 1060.86 758.23 1110.01 823.45 1097.31 782.5 1060.86"/>
    </g>
    <g>
      <circle cx="708.91" cy="1043.07" r="25.05"/>
      <circle class="b" cx="704.18" cy="1041.17" r="25.05"/>
    </g>
    <g>
      <rect x="661.18" y="1095.54" width="72" height="15" transform="translate(-613.41 1177.04) rotate(-58.95)"/>
      <rect class="c" x="659.82" y="1091.46" width="72" height="15" transform="translate(-610.58 1173.9) rotate(-58.95)"/>
    </g>
  </g>
  <g>
    <g>
      <polygon points="1039.03 137.05 997.15 176.8 1052.51 193.19 1039.03 137.05"/>
      <polygon class="a" points="1034.03 132.05 992.15 171.8 1047.51 188.19 1034.03 132.05"/>
    </g>
    <g>
      <polygon points="923.02 276.85 869.77 299.16 915.72 334.12 923.02 276.85"/>
      <polygon class="a" points="920.12 270.4 866.87 292.71 912.82 327.68 920.12 270.4"/>
    </g>
    <g>
      <path d="M902.08,91a19.05,19.05,0,0,1,3.34,37.81,19.5,19.5,0,0,1-3.39.3,19.06,19.06,0,0,1-3.34-37.81,19.5,19.5,0,0,1,3.39-.3h0m0-6a26.08,26.08,0,0,0-4.45.39,25.06,25.06,0,0,0,4.4,49.72,25.87,25.87,0,0,0,4.44-.39A25.06,25.06,0,0,0,902.08,85Z" transform="translate(-6 45.68)"/>
      <path class="b" d="M897.05,89a19.06,19.06,0,1,1-19,19,19.08,19.08,0,0,1,19-19m0-6a25.06,25.06,0,1,0,25.06,25,25.06,25.06,0,0,0-25.06-25Z" transform="translate(-6 45.68)"/>
    </g>
    <g>
      <rect x="900.82" y="159.62" width="72" height="15" transform="translate(191.61 812.08) rotate(-49.15)"/>
      <rect class="c" x="900.18" y="155.38" width="72" height="15" transform="translate(194.59 810.12) rotate(-49.15)"/>
    </g>
    <g>
      <rect x="1065.18" y="143.54" width="72" height="15" transform="translate(397.79 1062.2) rotate(-58.95)"/>
      <rect class="c" x="1063.82" y="139.46" width="72" height="15" transform="translate(400.62 1059.06) rotate(-58.95)"/>
    </g>
    <g>
      <polygon class="d" points="1079.05 272.83 1054.77 321.98 1120 309.28 1079.05 272.83"/>
      <polygon class="e" points="1072.5 270.86 1048.22 320.01 1113.45 307.31 1072.5 270.86"/>
    </g>
    <g>
      <circle cx="998.91" cy="253.07" r="25.05"/>
      <circle class="b" cx="994.18" cy="251.17" r="25.05"/>
    </g>
    <g>
      <rect x="951.18" y="305.54" width="72" height="15" transform="translate(203.81 1042.97) rotate(-58.95)"/>
      <rect class="c" x="949.82" y="301.46" width="72" height="15" transform="translate(206.64 1039.84) rotate(-58.95)"/>
    </g>
  </g>
  <g>
    <g>
      <polygon points="1321.03 72.05 1279.15 111.8 1334.51 128.19 1321.03 72.05"/>
      <polygon class="a" points="1316.03 67.05 1274.15 106.8 1329.51 123.19 1316.03 67.05"/>
    </g>
    <g>
      <polygon points="1205.02 211.85 1151.77 234.16 1197.72 269.12 1205.02 211.85"/>
      <polygon class="a" points="1202.12 205.41 1148.87 227.71 1194.82 262.68 1202.12 205.41"/>
    </g>
    <g>
      <path d="M1184.08,26a19.05,19.05,0,0,1,3.34,37.81,19.5,19.5,0,0,1-3.39.3,19.05,19.05,0,0,1-3.34-37.81,19.5,19.5,0,0,1,3.39-.3h0m0-6a26.08,26.08,0,0,0-4.45.39,25.06,25.06,0,0,0,4.4,49.72,25.87,25.87,0,0,0,4.44-.39A25.06,25.06,0,0,0,1184.08,20Z" transform="translate(-6 45.68)"/>
      <path class="b" d="M1179.05,24a19.06,19.06,0,1,1-19,19,19.08,19.08,0,0,1,19-19m0-6a25.06,25.06,0,1,0,25.06,25,25.06,25.06,0,0,0-25.06-25Z" transform="translate(-6 45.68)"/>
    </g>
    <g>
      <rect x="1182.82" y="94.62" width="72" height="15" transform="translate(338.31 1002.89) rotate(-49.15)"/>
      <rect class="c" x="1182.18" y="90.38" width="72" height="15" transform="translate(341.29 1000.93) rotate(-49.15)"/>
    </g>
    <g>
      <rect x="1347.18" y="78.54" width="72" height="15" transform="translate(590.02 1272.32) rotate(-58.95)"/>
      <rect class="c" x="1345.82" y="74.46" width="72" height="15" transform="translate(592.85 1269.18) rotate(-58.95)"/>
    </g>
    <g>
      <polygon class="d" points="1361.05 207.83 1336.77 256.98 1402 244.28 1361.05 207.83"/>
      <polygon class="e" points="1354.5 205.86 1330.22 255.01 1395.45 242.31 1354.5 205.86"/>
    </g>
    <g>
      <circle cx="1280.91" cy="188.07" r="25.05"/>
      <circle class="b" cx="1276.18" cy="186.17" r="25.05"/>
    </g>
    <g>
      <rect x="1233.18" y="240.54" width="72" height="15" transform="translate(396.04 1253.09) rotate(-58.95)"/>
      <rect class="c" x="1231.82" y="236.46" width="72" height="15" transform="translate(398.87 1249.95) rotate(-58.95)"/>
    </g>
  </g>
  <g>
    <g>
      <polygon points="1034.03 426.05 992.15 465.8 1047.51 482.19 1034.03 426.05"/>
      <polygon class="a" points="1029.03 421.05 987.15 460.8 1042.51 477.19 1029.03 421.05"/>
    </g>
    <g>
      <polygon points="918.02 565.85 864.77 588.16 910.72 623.12 918.02 565.85"/>
      <polygon class="a" points="915.12 559.4 861.87 581.71 907.82 616.68 915.12 559.4"/>
    </g>
    <g>
      <path d="M897.08,374v6a19.05,19.05,0,0,1,3.34,37.81,19.5,19.5,0,0,1-3.39.3,19.06,19.06,0,0,1-3.34-37.81,19.5,19.5,0,0,1,3.39-.3v-6m0,0a26.08,26.08,0,0,0-4.45.39,25.06,25.06,0,0,0,4.4,49.72,25.87,25.87,0,0,0,4.44-.39A25.06,25.06,0,0,0,897.08,374Z" transform="translate(-6 45.68)"/>
      <path class="b" d="M892.05,378a19.06,19.06,0,1,1-19,19.05,19.08,19.08,0,0,1,19-19.05m0-6a25.06,25.06,0,1,0,25.06,25.05A25.06,25.06,0,0,0,892.05,372Z" transform="translate(-6 45.68)"/>
    </g>
    <g>
      <rect x="895.82" y="448.62" width="72" height="15" transform="translate(-28.72 908.25) rotate(-49.15)"/>
      <rect class="c" x="895.18" y="444.38" width="72" height="15" transform="translate(-25.73 906.29) rotate(-49.15)"/>
    </g>
    <g>
      <rect x="1060.18" y="432.54" width="72" height="15" transform="translate(147.78 1197.85) rotate(-58.95)"/>
      <rect class="c" x="1058.82" y="428.46" width="72" height="15" transform="translate(150.61 1194.71) rotate(-58.95)"/>
    </g>
    <g>
      <polygon class="d" points="1074.05 561.83 1049.77 610.98 1115 598.28 1074.05 561.83"/>
      <polygon class="e" points="1067.5 559.86 1043.22 609.01 1108.45 596.3 1067.5 559.86"/>
    </g>
    <g>
      <circle cx="993.91" cy="542.07" r="25.05"/>
      <circle class="b" cx="989.18" cy="540.17" r="25.05"/>
    </g>
    <g>
      <rect x="946.18" y="594.54" width="72" height="15" transform="translate(-46.2 1178.62) rotate(-58.95)"/>
      <rect class="c" x="944.82" y="590.46" width="72" height="15" transform="translate(-43.37 1175.48) rotate(-58.95)"/>
    </g>
  </g>
  <g>
    <g>
      <polygon points="1320.03 357.05 1278.15 396.8 1333.51 413.19 1320.03 357.05"/>
      <polygon class="a" points="1315.03 352.05 1273.15 391.8 1328.51 408.19 1315.03 352.05"/>
    </g>
    <g>
      <polygon points="1204.02 496.85 1150.77 519.16 1196.72 554.12 1204.02 496.85"/>
      <polygon class="a" points="1201.12 490.4 1147.87 512.71 1193.82 547.68 1201.12 490.4"/>
    </g>
    <g>
      <path d="M1183.08,305v6a19.05,19.05,0,0,1,3.34,37.81,19.5,19.5,0,0,1-3.39.3,19.06,19.06,0,0,1-3.34-37.81,19.5,19.5,0,0,1,3.39-.3v-6m0,0a26.08,26.08,0,0,0-4.45.39,25.06,25.06,0,0,0,4.4,49.72,25.87,25.87,0,0,0,4.44-.39,25.06,25.06,0,0,0-4.39-49.72Z" transform="translate(-6 45.68)"/>
      <path class="b" d="M1178.05,309a19.06,19.06,0,1,1-19,19.05,19.08,19.08,0,0,1,19-19.05m0-6a25.06,25.06,0,1,0,25.06,25.05A25.06,25.06,0,0,0,1178.05,303Z" transform="translate(-6 45.68)"/>
    </g>
    <g>
      <rect x="1181.82" y="379.62" width="72" height="15" transform="translate(122.39 1100.71) rotate(-49.15)"/>
      <rect class="c" x="1181.18" y="375.38" width="72" height="15" transform="translate(125.38 1098.75) rotate(-49.15)"/>
    </g>
    <g>
      <rect x="1346.18" y="363.54" width="72" height="15" transform="translate(345.38 1409.46) rotate(-58.95)"/>
      <rect class="c" x="1344.82" y="359.46" width="72" height="15" transform="translate(348.2 1406.32) rotate(-58.95)"/>
    </g>
    <g>
      <polygon class="d" points="1360.05 492.83 1335.77 541.98 1401 529.28 1360.05 492.83"/>
      <polygon class="e" points="1353.5 490.86 1329.22 540.01 1394.45 527.3 1353.5 490.86"/>
    </g>
    <g>
      <circle cx="1279.91" cy="473.07" r="25.05"/>
      <circle class="b" cx="1275.18" cy="471.17" r="25.05"/>
    </g>
    <g>
      <rect x="1232.18" y="525.54" width="72" height="15" transform="translate(151.39 1390.23) rotate(-58.95)"/>
      <rect class="c" x="1230.82" y="521.46" width="72" height="15" transform="translate(154.22 1387.09) rotate(-58.95)"/>
    </g>
  </g>
  <g>
    <g>
      <polygon points="1606.03 141.05 1564.15 180.8 1619.51 197.19 1606.03 141.05"/>
      <polygon class="a" points="1601.03 136.05 1559.15 175.8 1614.51 192.19 1601.03 136.05"/>
    </g>
    <g>
      <polygon points="1490.02 280.85 1436.77 303.16 1482.72 338.12 1490.02 280.85"/>
      <polygon class="a" points="1487.12 274.4 1433.87 296.71 1479.82 331.68 1487.12 274.4"/>
    </g>
    <g>
      <path d="M1469.08,95a19.05,19.05,0,0,1,3.34,37.81,19.5,19.5,0,0,1-3.39.3,19.05,19.05,0,0,1-3.34-37.81,19.5,19.5,0,0,1,3.39-.3h0m0-6a26.08,26.08,0,0,0-4.45.39,25.06,25.06,0,0,0,4.4,49.72,25.87,25.87,0,0,0,4.44-.39A25.06,25.06,0,0,0,1469.08,89Z" transform="translate(-6 45.68)"/>
      <path class="b" d="M1464.05,93a19.06,19.06,0,1,1-19,19,19.08,19.08,0,0,1,19-19m0-6a25.06,25.06,0,1,0,25.06,25,25.06,25.06,0,0,0-25.06-25Z" transform="translate(-6 45.68)"/>
    </g>
    <g>
      <rect x="1467.82" y="163.62" width="72" height="15" transform="translate(384.69 1242.33) rotate(-49.15)"/>
      <rect class="c" x="1467.18" y="159.38" width="72" height="15" transform="translate(387.67 1240.37) rotate(-49.15)"/>
    </g>
    <g>
      <rect x="1632.18" y="147.54" width="72" height="15" transform="translate(668.9 1549.89) rotate(-58.95)"/>
      <rect class="c" x="1630.82" y="143.46" width="72" height="15" transform="translate(671.73 1546.75) rotate(-58.95)"/>
    </g>
    <g>
      <polygon class="d" points="1646.05 276.83 1621.77 325.98 1687 313.28 1646.05 276.83"/>
      <polygon class="e" points="1639.5 274.86 1615.22 324.01 1680.45 311.31 1639.5 274.86"/>
    </g>
    <g>
      <circle cx="1565.91" cy="257.07" r="25.05"/>
      <circle class="b" cx="1561.18" cy="255.17" r="25.05"/>
    </g>
    <g>
      <rect x="1518.18" y="309.54" width="72" height="15" transform="translate(474.92 1530.66) rotate(-58.95)"/>
      <rect class="c" x="1516.82" y="305.46" width="72" height="15" transform="translate(477.75 1527.52) rotate(-58.95)"/>
    </g>
  </g>
  <g>
    <g>
      <polygon points="1611.03 426.05 1569.15 465.8 1624.51 482.19 1611.03 426.05"/>
      <polygon class="a" points="1606.03 421.05 1564.15 460.8 1619.51 477.19 1606.03 421.05"/>
    </g>
    <g>
      <polygon points="1495.02 565.85 1441.77 588.16 1487.72 623.12 1495.02 565.85"/>
      <polygon class="a" points="1492.12 559.4 1438.87 581.71 1484.82 616.68 1492.12 559.4"/>
    </g>
    <g>
      <path d="M1474.08,374v6a19.05,19.05,0,0,1,3.34,37.81,19.5,19.5,0,0,1-3.39.3,19.06,19.06,0,0,1-3.34-37.81,19.5,19.5,0,0,1,3.39-.3v-6m0,0a26.08,26.08,0,0,0-4.45.39,25.06,25.06,0,0,0,4.4,49.72,25.87,25.87,0,0,0,4.44-.39,25.06,25.06,0,0,0-4.39-49.72Z" transform="translate(-6 45.68)"/>
      <path class="b" d="M1469.05,378a19.06,19.06,0,1,1-19,19.05,19.08,19.08,0,0,1,19-19.05m0-6a25.06,25.06,0,1,0,25.06,25.05A25.06,25.06,0,0,0,1469.05,372Z" transform="translate(-6 45.68)"/>
    </g>
    <g>
      <rect x="1472.82" y="448.62" width="72" height="15" transform="translate(170.85 1344.68) rotate(-49.15)"/>
      <rect class="c" x="1472.18" y="444.38" width="72" height="15" transform="translate(173.83 1342.72) rotate(-49.15)"/>
    </g>
    <g>
      <rect x="1637.18" y="432.54" width="72" height="15" transform="translate(427.16 1692.17) rotate(-58.95)"/>
      <rect class="c" x="1635.82" y="428.46" width="72" height="15" transform="translate(429.99 1689.03) rotate(-58.95)"/>
    </g>
    <g>
      <polygon class="d" points="1651.05 561.83 1626.77 610.98 1692 598.28 1651.05 561.83"/>
      <polygon class="e" points="1644.5 559.86 1620.22 609.01 1685.45 596.3 1644.5 559.86"/>
    </g>
    <g>
      <circle cx="1570.91" cy="542.07" r="25.05"/>
      <circle class="b" cx="1566.18" cy="540.17" r="25.05"/>
    </g>
    <g>
      <rect x="1523.18" y="594.54" width="72" height="15" transform="matrix(0.52, -0.86, 0.86, 0.52, 233.18, 1672.94)"/>
      <rect class="c" x="1521.82" y="590.46" width="72" height="15" transform="translate(236.01 1669.8) rotate(-58.95)"/>
    </g>
  </g>
  <g>
    <g>
      <polygon points="1034.03 710.05 992.15 749.8 1047.51 766.19 1034.03 710.05"/>
      <polygon class="a" points="1029.03 705.05 987.15 744.8 1042.51 761.19 1029.03 705.05"/>
    </g>
    <g>
      <polygon points="918.02 849.85 864.77 872.16 910.72 907.12 918.02 849.85"/>
      <polygon class="a" points="915.12 843.4 861.87 865.71 907.82 900.68 915.12 843.4"/>
    </g>
    <g>
      <path d="M897.08,658v6a19.05,19.05,0,0,1,3.34,37.81,19.5,19.5,0,0,1-3.39.3,19.06,19.06,0,0,1-3.34-37.81,19.5,19.5,0,0,1,3.39-.3v-6m0,0a26.08,26.08,0,0,0-4.45.39,25.06,25.06,0,0,0,4.4,49.72,25.87,25.87,0,0,0,4.44-.39A25.06,25.06,0,0,0,897.08,658Z" transform="translate(-6 45.68)"/>
      <path class="b" d="M892.05,662a19.06,19.06,0,1,1-19,19,19.08,19.08,0,0,1,19-19m0-6a25.06,25.06,0,1,0,25.06,25,25.06,25.06,0,0,0-25.06-25Z" transform="translate(-6 45.68)"/>
    </g>
    <g>
      <rect x="895.82" y="732.62" width="72" height="15" transform="translate(-243.53 1006.47) rotate(-49.15)"/>
      <rect class="c" x="895.18" y="728.38" width="72" height="15" transform="translate(-240.54 1004.52) rotate(-49.15)"/>
    </g>
    <g>
      <rect x="1060.18" y="716.54" width="72" height="15" transform="translate(-95.52 1335.36) rotate(-58.95)"/>
      <rect class="c" x="1058.82" y="712.46" width="72" height="15" transform="translate(-92.69 1332.22) rotate(-58.95)"/>
    </g>
    <g>
      <polygon class="d" points="1074.05 845.83 1049.77 894.98 1115 882.28 1074.05 845.83"/>
      <polygon class="e" points="1067.5 843.86 1043.22 893.01 1108.45 880.3 1067.5 843.86"/>
    </g>
    <g>
      <circle cx="993.91" cy="826.07" r="25.05"/>
      <circle class="b" cx="989.18" cy="824.17" r="25.05"/>
    </g>
    <g>
      <rect x="946.18" y="878.54" width="72" height="15" transform="translate(-289.51 1316.13) rotate(-58.95)"/>
      <rect class="c" x="944.82" y="874.46" width="72" height="15" transform="translate(-286.68 1313) rotate(-58.95)"/>
    </g>
  </g>
  <g>
    <g>
      <polygon points="1323.03 642.05 1281.15 681.8 1336.51 698.19 1323.03 642.05"/>
      <polygon class="a" points="1318.03 637.05 1276.15 676.8 1331.51 693.19 1318.03 637.05"/>
    </g>
    <g>
      <polygon points="1207.02 781.85 1153.77 804.16 1199.72 839.12 1207.02 781.85"/>
      <polygon class="a" points="1204.12 775.4 1150.87 797.71 1196.82 832.68 1204.12 775.4"/>
    </g>
    <g>
      <path d="M1186.08,590v6a19.05,19.05,0,0,1,3.34,37.81,19.5,19.5,0,0,1-3.39.3,19.06,19.06,0,0,1-3.34-37.81,19.5,19.5,0,0,1,3.39-.3v-6m0,0a26.08,26.08,0,0,0-4.45.39,25.06,25.06,0,0,0,4.4,49.72,25.87,25.87,0,0,0,4.44-.39,25.06,25.06,0,0,0-4.39-49.72Z" transform="translate(-6 45.68)"/>
      <path class="b" d="M1181.05,594a19.06,19.06,0,1,1-19,19,19.08,19.08,0,0,1,19-19m0-6a25.06,25.06,0,1,0,25.06,25,25.06,25.06,0,0,0-25.06-25Z" transform="translate(-6 45.68)"/>
    </g>
    <g>
      <rect x="1184.82" y="664.62" width="72" height="15" transform="translate(-92.14 1201.55) rotate(-49.15)"/>
      <rect class="c" x="1184.18" y="660.38" width="72" height="15" transform="translate(-89.15 1199.59) rotate(-49.15)"/>
    </g>
    <g>
      <rect x="1349.18" y="648.54" width="72" height="15" transform="translate(102.67 1550.02) rotate(-58.95)"/>
      <rect class="c" x="1347.82" y="644.46" width="72" height="15" transform="translate(105.5 1546.88) rotate(-58.95)"/>
    </g>
    <g>
      <polygon class="d" points="1363.05 777.83 1338.77 826.98 1404 814.28 1363.05 777.83"/>
      <polygon class="e" points="1356.5 775.86 1332.22 825.01 1397.45 812.3 1356.5 775.86"/>
    </g>
    <g>
      <circle cx="1282.91" cy="758.07" r="25.05"/>
      <circle class="b" cx="1278.18" cy="756.17" r="25.05"/>
    </g>
    <g>
      <rect x="1235.18" y="810.54" width="72" height="15" transform="translate(-91.32 1530.8) rotate(-58.95)"/>
      <rect class="c" x="1233.82" y="806.46" width="72" height="15" transform="translate(-88.49 1527.66) rotate(-58.95)"/>
    </g>
  </g>
  <g>
    <g>
      <polygon points="1608.03 710.05 1566.15 749.8 1621.51 766.19 1608.03 710.05"/>
      <polygon class="a" points="1603.03 705.05 1561.15 744.8 1616.51 761.19 1603.03 705.05"/>
    </g>
    <g>
      <polygon points="1492.02 849.85 1438.77 872.16 1484.72 907.12 1492.02 849.85"/>
      <polygon class="a" points="1489.12 843.4 1435.87 865.71 1481.82 900.68 1489.12 843.4"/>
    </g>
    <g>
      <path d="M1471.08,658v6a19.05,19.05,0,0,1,3.34,37.81,19.5,19.5,0,0,1-3.39.3,19.06,19.06,0,0,1-3.34-37.81,19.5,19.5,0,0,1,3.39-.3v-6m0,0a26.08,26.08,0,0,0-4.45.39,25.06,25.06,0,0,0,4.4,49.72,25.87,25.87,0,0,0,4.44-.39,25.06,25.06,0,0,0-4.39-49.72Z" transform="translate(-6 45.68)"/>
      <path class="b" d="M1466.05,662a19.06,19.06,0,1,1-19,19,19.08,19.08,0,0,1,19-19m0-6a25.06,25.06,0,1,0,25.06,25,25.06,25.06,0,0,0-25.06-25Z" transform="translate(-6 45.68)"/>
    </g>
    <g>
      <rect x="1469.82" y="732.62" width="72" height="15" transform="translate(-45 1440.64) rotate(-49.15)"/>
      <rect class="c" x="1469.18" y="728.38" width="72" height="15" transform="translate(-42.01 1438.68) rotate(-49.15)"/>
    </g>
    <g>
      <rect x="1634.18" y="716.54" width="72" height="15" transform="translate(182.41 1827.11) rotate(-58.95)"/>
      <rect class="c" x="1632.82" y="712.46" width="72" height="15" transform="matrix(0.52, -0.86, 0.86, 0.52, 185.24, 1823.97)"/>
    </g>
    <g>
      <polygon class="d" points="1648.05 845.83 1623.77 894.98 1689 882.28 1648.05 845.83"/>
      <polygon class="e" points="1641.5 843.86 1617.22 893.01 1682.45 880.3 1641.5 843.86"/>
    </g>
    <g>
      <circle cx="1567.91" cy="826.07" r="25.05"/>
      <circle class="b" cx="1563.18" cy="824.17" r="25.05"/>
    </g>
    <g>
      <rect x="1520.18" y="878.54" width="72" height="15" transform="translate(-11.58 1807.88) rotate(-58.95)"/>
      <rect class="c" x="1518.82" y="874.46" width="72" height="15" transform="matrix(0.52, -0.86, 0.86, 0.52, -8.75, 1804.74)"/>
    </g>
  </g>
  <g>
    <polygon points="1030.03 1002.05 988.15 1041.8 1043.51 1058.19 1030.03 1002.05"/>
    <polygon class="a" points="1025.03 997.05 983.15 1036.8 1038.51 1053.19 1025.03 997.05"/>
  </g>
  <g>
    <path d="M893.08,956a19.05,19.05,0,0,1,3.34,37.81,19.5,19.5,0,0,1-3.39.3,19.06,19.06,0,0,1-3.34-37.81,19.5,19.5,0,0,1,3.39-.3h0m0-6a26.08,26.08,0,0,0-4.45.39,25.06,25.06,0,0,0,4.4,49.72,25.87,25.87,0,0,0,4.44-.39A25.06,25.06,0,0,0,893.08,950Z" transform="translate(-6 45.68)"/>
    <path class="b" d="M888.05,954a19.06,19.06,0,1,1-19,19,19.08,19.08,0,0,1,19-19m0-6a25.06,25.06,0,1,0,25.06,25,25.06,25.06,0,0,0-25.06-25Z" transform="translate(-6 45.68)"/>
  </g>
  <g>
    <rect x="891.82" y="1024.62" width="72" height="15" transform="translate(-465.77 1104.44) rotate(-49.15)"/>
    <rect class="c" x="891.18" y="1020.38" width="72" height="15" transform="translate(-462.79 1102.48) rotate(-49.15)"/>
  </g>
  <g>
    <rect x="1056.18" y="1008.54" width="72" height="15" transform="translate(-347.62 1473.32) rotate(-58.95)"/>
    <rect class="c" x="1054.82" y="1004.46" width="72" height="15" transform="translate(-344.79 1470.18) rotate(-58.95)"/>
  </g>
  <g>
    <circle cx="989.91" cy="1118.07" r="25.05"/>
    <circle class="b" cx="985.18" cy="1116.17" r="25.05"/>
  </g>
  <g>
    <g>
      <polygon points="1320.03 933.05 1278.15 972.8 1333.51 989.19 1320.03 933.05"/>
      <polygon class="a" points="1315.03 928.05 1273.15 967.8 1328.51 984.19 1315.03 928.05"/>
    </g>
    <g>
      <polygon points="1204.02 1072.85 1150.77 1095.16 1196.72 1130.12 1204.02 1072.85"/>
      <polygon class="a" points="1201.12 1066.4 1147.87 1088.71 1193.82 1123.68 1201.12 1066.4"/>
    </g>
    <g>
      <path d="M1183.08,887a19.06,19.06,0,0,1,3.34,37.81,19.5,19.5,0,0,1-3.39.3,19.05,19.05,0,0,1-3.34-37.81,19.5,19.5,0,0,1,3.39-.3h0m0-6a26.08,26.08,0,0,0-4.45.39,25.06,25.06,0,0,0,4.4,49.72,25.87,25.87,0,0,0,4.44-.39,25.06,25.06,0,0,0-4.39-49.72Z" transform="translate(-6 45.68)"/>
      <path class="b" d="M1178.05,885a19.06,19.06,0,1,1-19,19,19.08,19.08,0,0,1,19-19m0-6a25.06,25.06,0,1,0,25.06,25,25.06,25.06,0,0,0-25.06-25Z" transform="translate(-6 45.68)"/>
    </g>
    <g>
      <rect x="1181.82" y="955.62" width="72" height="15" transform="translate(-313.28 1299.93) rotate(-49.15)"/>
      <rect class="c" x="1181.18" y="951.38" width="72" height="15" transform="translate(-310.3 1297.97) rotate(-49.15)"/>
    </g>
    <g>
      <rect x="1346.18" y="939.54" width="72" height="15" transform="translate(-148.09 1688.35) rotate(-58.95)"/>
      <rect class="c" x="1344.82" y="935.46" width="72" height="15" transform="translate(-145.26 1685.21) rotate(-58.95)"/>
    </g>
    <g>
      <polygon class="d" points="1360.05 1068.83 1335.77 1117.98 1401 1105.28 1360.05 1068.83"/>
      <polygon class="e" points="1353.5 1066.86 1329.22 1116.01 1394.45 1103.31 1353.5 1066.86"/>
    </g>
    <g>
      <circle cx="1279.91" cy="1049.07" r="25.05"/>
      <circle class="b" cx="1275.18" cy="1047.17" r="25.05"/>
    </g>
    <g>
      <rect x="1232.18" y="1101.54" width="72" height="15" transform="translate(-342.07 1669.13) rotate(-58.95)"/>
      <rect class="c" x="1230.82" y="1097.46" width="72" height="15" transform="translate(-339.24 1665.99) rotate(-58.95)"/>
    </g>
  </g>
  <g>
    <polygon points="1606.03 998.05 1564.15 1037.8 1619.51 1054.19 1606.03 998.05"/>
    <polygon class="a" points="1601.03 993.05 1559.15 1032.8 1614.51 1049.19 1601.03 993.05"/>
  </g>
  <g>
    <path d="M1469.08,952a19.05,19.05,0,0,1,3.34,37.81,19.5,19.5,0,0,1-3.39.3,19.06,19.06,0,0,1-3.34-37.81,19.5,19.5,0,0,1,3.39-.3h0m0-6a26.08,26.08,0,0,0-4.45.39,25.06,25.06,0,0,0,4.4,49.72,25.87,25.87,0,0,0,4.44-.39,25.06,25.06,0,0,0-4.39-49.72Z" transform="translate(-6 45.68)"/>
    <path class="b" d="M1464.05,950a19.06,19.06,0,1,1-19,19,19.08,19.08,0,0,1,19-19m0-6a25.06,25.06,0,1,0,25.06,25,25.06,25.06,0,0,0-25.06-25Z" transform="translate(-6 45.68)"/>
  </g>
  <g>
    <rect x="1467.82" y="1020.62" width="72" height="15" transform="translate(-263.53 1538.73) rotate(-49.15)"/>
    <rect class="c" x="1467.18" y="1016.38" width="72" height="15" transform="translate(-260.54 1536.77) rotate(-49.15)"/>
  </g>
  <g>
    <rect x="1632.18" y="1004.54" width="72" height="15" transform="translate(-65.29 1964.84) rotate(-58.95)"/>
    <rect class="c" x="1630.82" y="1000.46" width="72" height="15" transform="translate(-62.46 1961.7) rotate(-58.95)"/>
  </g>
  <g>
    <circle cx="1565.91" cy="1114.07" r="25.05"/>
    <circle class="b" cx="1561.18" cy="1112.17" r="25.05"/>
  </g>
  <g>
    <g>
      <polygon points="1903.03 68.05 1861.15 107.8 1916.51 124.19 1903.03 68.05"/>
      <polygon class="a" points="1898.03 63.05 1856.15 102.8 1911.51 119.19 1898.03 63.05"/>
    </g>
    <g>
      <polygon points="1787.02 207.85 1733.77 230.16 1779.72 265.12 1787.02 207.85"/>
      <polygon class="a" points="1784.12 201.41 1730.87 223.71 1776.82 258.68 1784.12 201.41"/>
    </g>
    <g>
      <path d="M1766.08,22a19.05,19.05,0,0,1,3.34,37.81,19.5,19.5,0,0,1-3.39.3,19.05,19.05,0,0,1-3.34-37.81,19.5,19.5,0,0,1,3.39-.3h0m0-6a26.08,26.08,0,0,0-4.45.39,25.06,25.06,0,0,0,4.4,49.72,25.87,25.87,0,0,0,4.44-.39A25.06,25.06,0,0,0,1766.08,16Z" transform="translate(-6 45.68)"/>
      <path class="b" d="M1761.05,20a19.06,19.06,0,1,1-19,19,19.08,19.08,0,0,1,19-19m0-6a25.06,25.06,0,1,0,25.06,25,25.06,25.06,0,0,0-25.06-25Z" transform="translate(-6 45.68)"/>
    </g>
    <g>
      <rect x="1764.82" y="90.62" width="72" height="15" transform="translate(542.62 1441.72) rotate(-49.15)"/>
      <rect class="c" x="1764.18" y="86.38" width="72" height="15" transform="translate(545.61 1439.76) rotate(-49.15)"/>
    </g>
    <g>
      <rect x="1929.18" y="74.54" width="72" height="15" transform="translate(875.25 1768.98) rotate(-58.95)"/>
      <rect class="c" x="1927.82" y="70.46" width="72" height="15" transform="translate(878.08 1765.84) rotate(-58.95)"/>
    </g>
    <g>
      <polygon class="d" points="1943.05 203.83 1918.77 252.98 1984 240.28 1943.05 203.83"/>
      <polygon class="e" points="1936.5 201.86 1912.22 251.01 1977.45 238.31 1936.5 201.86"/>
    </g>
    <g>
      <circle cx="1862.91" cy="184.07" r="25.05"/>
      <circle class="b" cx="1858.18" cy="182.17" r="25.05"/>
    </g>
    <g>
      <rect x="1815.18" y="236.54" width="72" height="15" transform="translate(681.26 1749.76) rotate(-58.95)"/>
      <rect class="c" x="1813.82" y="232.46" width="72" height="15" transform="translate(684.09 1746.62) rotate(-58.95)"/>
    </g>
  </g>
  <g>
    <g>
      <polygon points="1898.03 357.05 1856.15 396.8 1911.51 413.19 1898.03 357.05"/>
      <polygon class="a" points="1893.03 352.05 1851.15 391.8 1906.51 408.19 1893.03 352.05"/>
    </g>
    <g>
      <polygon points="1782.02 496.85 1728.77 519.16 1774.72 554.12 1782.02 496.85"/>
      <polygon class="a" points="1779.12 490.4 1725.87 512.71 1771.82 547.68 1779.12 490.4"/>
    </g>
    <g>
      <path d="M1761.08,311a19.05,19.05,0,0,1,3.34,37.81,19.5,19.5,0,0,1-3.39.3,19.05,19.05,0,0,1-3.34-37.81,19.5,19.5,0,0,1,3.39-.3h0m0-6a26.08,26.08,0,0,0-4.45.39,25.06,25.06,0,0,0,4.4,49.72,25.87,25.87,0,0,0,4.44-.39,25.06,25.06,0,0,0-4.39-49.72Z" transform="translate(-6 45.68)"/>
      <path class="b" d="M1756.05,309a19.06,19.06,0,1,1-19,19.05,19.08,19.08,0,0,1,19-19.05m0-6a25.06,25.06,0,1,0,25.06,25.05A25.06,25.06,0,0,0,1756.05,303Z" transform="translate(-6 45.68)"/>
    </g>
    <g>
      <rect x="1759.82" y="379.62" width="72" height="15" transform="translate(322.3 1537.89) rotate(-49.15)"/>
      <rect class="c" x="1759.18" y="375.38" width="72" height="15" transform="translate(325.29 1535.94) rotate(-49.15)"/>
    </g>
    <g>
      <rect x="1924.18" y="363.54" width="72" height="15" transform="translate(625.24 1904.63) rotate(-58.95)"/>
      <rect class="c" x="1922.82" y="359.46" width="72" height="15" transform="translate(628.07 1901.49) rotate(-58.95)"/>
    </g>
    <g>
      <polygon class="d" points="1938.05 492.83 1913.77 541.98 1979 529.28 1938.05 492.83"/>
      <polygon class="e" points="1931.5 490.86 1907.22 540.01 1972.45 527.3 1931.5 490.86"/>
    </g>
    <g>
      <circle cx="1857.91" cy="473.07" r="25.05"/>
      <circle class="b" cx="1853.18" cy="471.17" r="25.05"/>
    </g>
    <g>
      <rect x="1810.18" y="525.54" width="72" height="15" transform="translate(431.26 1885.41) rotate(-58.95)"/>
      <rect class="c" x="1808.82" y="521.46" width="72" height="15" transform="translate(434.08 1882.27) rotate(-58.95)"/>
    </g>
  </g>
  <g>
    <g>
      <polygon points="1898.03 641.05 1856.15 680.8 1911.51 697.19 1898.03 641.05"/>
      <polygon class="a" points="1893.03 636.05 1851.15 675.8 1906.51 692.19 1893.03 636.05"/>
    </g>
    <g>
      <polygon points="1782.02 780.85 1728.77 803.16 1774.72 838.12 1782.02 780.85"/>
      <polygon class="a" points="1779.12 774.4 1725.87 796.71 1771.82 831.68 1779.12 774.4"/>
    </g>
    <g>
      <path d="M1761.08,589v6a19.05,19.05,0,0,1,3.34,37.81,19.5,19.5,0,0,1-3.39.3,19.06,19.06,0,0,1-3.34-37.81,19.5,19.5,0,0,1,3.39-.3v-6m0,0a26.08,26.08,0,0,0-4.45.39,25.06,25.06,0,0,0,4.4,49.72,25.87,25.87,0,0,0,4.44-.39,25.06,25.06,0,0,0-4.39-49.72Z" transform="translate(-6 45.68)"/>
      <path class="b" d="M1756.05,593a19.06,19.06,0,1,1-19,19,19.08,19.08,0,0,1,19-19m0-6a25.06,25.06,0,1,0,25.06,25,25.06,25.06,0,0,0-25.06-25Z" transform="translate(-6 45.68)"/>
    </g>
    <g>
      <rect x="1759.82" y="663.62" width="72" height="15" transform="translate(107.49 1636.12) rotate(-49.15)"/>
      <rect class="c" x="1759.18" y="659.38" width="72" height="15" transform="translate(110.48 1634.16) rotate(-49.15)"/>
    </g>
    <g>
      <rect x="1924.18" y="647.54" width="72" height="15" transform="matrix(0.52, -0.86, 0.86, 0.52, 381.94, 2042.14)"/>
      <rect class="c" x="1922.82" y="643.46" width="72" height="15" transform="translate(384.76 2039) rotate(-58.95)"/>
    </g>
    <g>
      <polygon class="d" points="1938.05 776.83 1913.77 825.98 1979 813.28 1938.05 776.83"/>
      <polygon class="e" points="1931.5 774.86 1907.22 824.01 1972.45 811.3 1931.5 774.86"/>
    </g>
    <g>
      <circle cx="1857.91" cy="757.07" r="25.05"/>
      <circle class="b" cx="1853.18" cy="755.17" r="25.05"/>
    </g>
    <g>
      <rect x="1810.18" y="809.54" width="72" height="15" transform="matrix(0.52, -0.86, 0.86, 0.52, 187.95, 2022.92)"/>
      <rect class="c" x="1808.82" y="805.46" width="72" height="15" transform="translate(190.78 2019.78) rotate(-58.95)"/>
    </g>
  </g>
  <g>
    <g>
      <polygon points="1894.03 933.05 1852.15 972.8 1907.51 989.19 1894.03 933.05"/>
      <polygon class="a" points="1889.03 928.05 1847.15 967.8 1902.51 984.19 1889.03 928.05"/>
    </g>
    <g>
      <polygon points="1778.02 1072.85 1724.77 1095.16 1770.72 1130.12 1778.02 1072.85"/>
      <polygon class="a" points="1775.12 1066.4 1721.87 1088.71 1767.82 1123.68 1775.12 1066.4"/>
    </g>
    <g>
      <path d="M1757.08,887a19.05,19.05,0,0,1,3.34,37.81,19.5,19.5,0,0,1-3.39.3,19.06,19.06,0,0,1-3.34-37.81,19.5,19.5,0,0,1,3.39-.3h0m0-6a26.08,26.08,0,0,0-4.45.39,25.06,25.06,0,0,0,4.4,49.72,25.87,25.87,0,0,0,4.44-.39,25.06,25.06,0,0,0-4.39-49.72Z" transform="translate(-6 45.68)"/>
      <path class="b" d="M1752.05,885a19.06,19.06,0,1,1-19,19,19.08,19.08,0,0,1,19-19m0-6a25.06,25.06,0,1,0,25.06,25,25.06,25.06,0,0,0-25.06-25Z" transform="translate(-6 45.68)"/>
    </g>
    <g>
      <rect x="1755.82" y="955.62" width="72" height="15" transform="translate(-114.75 1734.09) rotate(-49.15)"/>
      <rect class="c" x="1755.18" y="951.38" width="72" height="15" transform="translate(-111.77 1732.13) rotate(-49.15)"/>
    </g>
    <g>
      <rect x="1920.18" y="939.54" width="72" height="15" transform="translate(129.84 2180.1) rotate(-58.95)"/>
      <rect class="c" x="1918.82" y="935.46" width="72" height="15" transform="matrix(0.52, -0.86, 0.86, 0.52, 132.67, 2176.96)"/>
    </g>
    <g>
      <polygon class="d" points="1934.05 1068.83 1909.77 1117.98 1975 1105.28 1934.05 1068.83"/>
      <polygon class="e" points="1927.5 1066.86 1903.22 1116.01 1968.45 1103.31 1927.5 1066.86"/>
    </g>
    <g>
      <circle cx="1853.91" cy="1049.07" r="25.05"/>
      <circle class="b" cx="1849.18" cy="1047.17" r="25.05"/>
    </g>
    <g>
      <rect x="1806.18" y="1101.54" width="72" height="15" transform="translate(-64.14 2160.88) rotate(-58.95)"/>
      <rect class="c" x="1804.82" y="1097.46" width="72" height="15" transform="matrix(0.52, -0.86, 0.86, 0.52, -61.31, 2157.74)"/>
    </g>
  </g>
  <g>
    <polygon points="347.02 10.85 293.77 33.16 339.72 68.12 347.02 10.85"/>
    <polygon class="a" points="344.12 4.41 290.87 26.71 336.81 61.68 344.12 4.41"/>
  </g>
  <g>
    <polygon class="d" points="503.05 6.83 478.77 55.98 544 43.28 503.05 6.83"/>
    <polygon class="e" points="496.5 4.86 472.23 54.01 537.45 41.3 496.5 4.86"/>
  </g>
  <g>
    <rect x="375.18" y="39.54" width="72" height="15" transform="translate(152.8 420.72) rotate(-58.95)"/>
    <rect class="c" x="373.82" y="35.46" width="72" height="15" transform="translate(155.62 417.58) rotate(-58.95)"/>
  </g>
  <g>
    <polygon points="921.02 17.85 867.77 40.16 913.72 75.12 921.02 17.85"/>
    <polygon class="a" points="918.12 11.4 864.87 33.71 910.82 68.68 918.12 11.4"/>
  </g>
  <g>
    <polygon class="d" points="1077.05 13.83 1052.77 62.98 1118 50.28 1077.05 13.83"/>
    <polygon class="e" points="1070.5 11.86 1046.22 61.01 1111.45 48.3 1070.5 11.86"/>
  </g>
  <g>
    <rect x="949.18" y="46.54" width="72" height="15" transform="matrix(0.52, -0.86, 0.86, 0.52, 424.73, 915.85)"/>
    <rect class="c" x="947.82" y="42.46" width="72" height="15" transform="translate(427.56 912.72) rotate(-58.95)"/>
  </g>
  <g>
    <polygon points="1502.02 12.85 1448.77 35.16 1494.72 70.12 1502.02 12.85"/>
    <polygon class="a" points="1499.12 6.41 1445.87 28.71 1491.82 63.68 1499.12 6.41"/>
  </g>
  <g>
    <polygon class="d" points="1658.05 8.83 1633.77 57.98 1699 45.28 1658.05 8.83"/>
    <polygon class="e" points="1651.5 6.86 1627.22 56.01 1692.45 43.3 1651.5 6.86"/>
  </g>
  <g>
    <rect x="1530.18" y="41.54" width="72" height="15" transform="matrix(0.52, -0.86, 0.86, 0.52, 710.33, 1411.18)"/>
    <rect class="c" x="1528.82" y="37.46" width="72" height="15" transform="translate(713.16 1408.04) rotate(-58.95)"/>
  </g>
  <g>
    <circle cx="231.91" cy="313.07" r="25.05"/>
    <circle class="b" cx="227.18" cy="311.17" r="25.05"/>
  </g>
  <g>
    <circle cx="228.91" cy="603.07" r="25.05"/>
    <circle class="b" cx="224.18" cy="601.17" r="25.05"/>
  </g>
  <g>
    <circle cx="229.91" cy="894.07" r="25.05"/>
    <circle class="b" cx="225.18" cy="892.17" r="25.05"/>
  </g>
  <g>
    <circle cx="507.91" cy="386.07" r="25.05"/>
    <circle class="b" cx="503.18" cy="384.17" r="25.05"/>
  </g>
  <g>
    <circle cx="797.91" cy="310.07" r="25.05"/>
    <circle class="b" cx="793.18" cy="308.17" r="25.05"/>
  </g>
  <g>
    <circle cx="507.91" cy="676.07" r="25.05"/>
    <circle class="b" cx="503.18" cy="674.17" r="25.05"/>
  </g>
  <g>
    <circle cx="512.91" cy="964.07" r="25.05"/>
    <circle class="b" cx="508.18" cy="962.17" r="25.05"/>
  </g>
  <g>
    <circle cx="1073.91" cy="383.07" r="25.05"/>
    <circle class="b" cx="1069.18" cy="381.17" r="25.05"/>
  </g>
  <g>
    <circle cx="800.91" cy="601.07" r="25.05"/>
    <circle class="b" cx="796.18" cy="599.17" r="25.05"/>
  </g>
  <g>
    <circle cx="804.91" cy="891.07" r="25.05"/>
    <circle class="b" cx="800.18" cy="889.17" r="25.05"/>
  </g>
  <g>
    <circle cx="1077.91" cy="673.07" r="25.05"/>
    <circle class="b" cx="1073.18" cy="671.17" r="25.05"/>
  </g>
  <g>
    <circle cx="1073.91" cy="962.07" r="25.05"/>
    <circle class="b" cx="1069.18" cy="960.17" r="25.05"/>
  </g>
  <g>
    <circle cx="1366.91" cy="318.07" r="25.05"/>
    <circle class="b" cx="1362.18" cy="316.17" r="25.05"/>
  </g>
  <g>
    <circle cx="1375.91" cy="605.07" r="25.05"/>
    <circle class="b" cx="1371.18" cy="603.17" r="25.05"/>
  </g>
  <g>
    <circle cx="1369.91" cy="889.07" r="25.05"/>
    <circle class="b" cx="1365.18" cy="887.17" r="25.05"/>
  </g>
  <g>
    <circle cx="1656.91" cy="395.07" r="25.05"/>
    <circle class="b" cx="1652.18" cy="393.17" r="25.05"/>
  </g>
  <g>
    <circle cx="1666.91" cy="117.07" r="25.05"/>
    <circle class="b" cx="1662.18" cy="115.17" r="25.05"/>
  </g>
  <g>
    <circle cx="1654.91" cy="679.07" r="25.05"/>
    <circle class="b" cx="1650.18" cy="677.17" r="25.05"/>
  </g>
  <g>
    <circle cx="1656.91" cy="955.07" r="25.05"/>
    <circle class="b" cx="1652.18" cy="953.17" r="25.05"/>
  </g>
  <g>
    <rect x="16.84" y="89.87" width="5" height="23" rx="2.5" transform="translate(-36.07 56.45) rotate(-17.81)"/>
    <rect x="125.84" y="22.87" width="5" height="23" rx="2.5" transform="translate(18.37 162.77) rotate(-53.5)"/>
    <rect x="101.84" y="168.87" width="5" height="23" rx="2.5" transform="translate(36.02 27.21) rotate(12.65)"/>
    <rect x="262.84" y="221.87" width="5" height="23" rx="2.5" transform="translate(-86.09 353.53) rotate(-53.5)"/>
    <rect x="170.84" y="248.87" width="5" height="23" rx="2.5" transform="translate(39.32 20.66) rotate(9.49)"/>
    <rect x="36.84" y="240.87" width="5" height="23" rx="2.5" transform="translate(-172.93 147.41) rotate(-45)"/>
    <rect x="260.84" y="117.87" width="5" height="23" rx="2.5" transform="translate(33.27 -14.36) rotate(14.05)"/>
    <rect x="189.84" y="109.87" width="5" height="23" rx="2.5" transform="translate(-25.63 249.47) rotate(-53.5)"/>
    <rect x="101.84" y="167.87" width="5" height="23" rx="2.5" transform="translate(-107.91 202.23) rotate(-53.5)"/>
    <rect x="232.84" y="25.87" width="5" height="23" rx="2.5" transform="translate(59.82 -84.41) rotate(35.63)"/>
    <rect x="233.23" y="24.95" width="5" height="23" rx="2.5" transform="translate(8.15 170.44) rotate(-30.52)"/>
  </g>
  <g>
    <rect x="15.84" y="377.87" width="5" height="23" rx="2.5" transform="translate(-124.19 69.94) rotate(-17.81)"/>
    <rect x="124.84" y="310.87" width="5" height="23" rx="2.5" transform="translate(-213.54 278.66) rotate(-53.5)"/>
    <rect x="100.84" y="456.87" width="5" height="23" rx="2.5" transform="translate(99.04 34.42) rotate(12.65)"/>
    <rect x="261.84" y="509.87" width="5" height="23" rx="2.5" transform="translate(-318 469.42) rotate(-53.5)"/>
    <rect x="169.84" y="536.87" width="5" height="23" rx="2.5" transform="translate(86.81 24.77) rotate(9.49)"/>
    <rect x="35.84" y="528.87" width="5" height="23" rx="2.5" transform="translate(-376.87 231.06) rotate(-45)"/>
    <rect x="259.84" y="405.87" width="5" height="23" rx="2.5" transform="translate(103.14 -5.51) rotate(14.05)"/>
    <rect x="188.84" y="397.87" width="5" height="23" rx="2.5" transform="translate(-257.55 365.35) rotate(-53.5)"/>
    <rect x="100.84" y="455.87" width="5" height="23" rx="2.5" transform="translate(-339.83 318.12) rotate(-53.5)"/>
    <rect x="231.84" y="313.87" width="5" height="23" rx="2.5" transform="matrix(0.81, 0.58, -0.58, 0.81, 227.39, -29.92)"/>
    <rect x="232.23" y="312.95" width="5" height="23" rx="2.5" transform="translate(-138.24 209.83) rotate(-30.52)"/>
  </g>
  <g>
    <rect x="16.84" y="664.87" width="5" height="23" rx="2.5" transform="translate(-211.9 83.99) rotate(-17.81)"/>
    <rect x="125.84" y="597.87" width="5" height="23" rx="2.5" transform="translate(-443.85 395.75) rotate(-53.5)"/>
    <rect x="101.84" y="743.87" width="5" height="23" rx="2.5" transform="translate(161.89 41.16) rotate(12.65)"/>
    <rect x="262.84" y="796.87" width="5" height="23" rx="2.5" transform="translate(-548.3 586.51) rotate(-53.5)"/>
    <rect x="170.84" y="823.87" width="5" height="23" rx="2.5" transform="translate(134.17 28.53) rotate(9.49)"/>
    <rect x="36.84" y="815.87" width="5" height="23" rx="2.5" transform="translate(-579.52 315.83) rotate(-45)"/>
    <rect x="260.84" y="692.87" width="5" height="23" rx="2.5" transform="translate(172.83 2.83) rotate(14.05)"/>
    <rect x="189.84" y="684.87" width="5" height="23" rx="2.5" transform="translate(-487.85 482.44) rotate(-53.5)"/>
    <rect x="101.84" y="742.87" width="5" height="23" rx="2.5" transform="translate(-570.13 435.21) rotate(-53.5)"/>
    <rect x="232.84" y="600.87" width="5" height="23" rx="2.5" transform="translate(394.76 23.21) rotate(35.63)"/>
    <rect x="233.23" y="599.95" width="5" height="23" rx="2.5" transform="matrix(0.86, -0.51, 0.51, 0.86, -283.85, 250.09)"/>
  </g>
  <g>
    <rect x="15.84" y="952.87" width="5" height="23" rx="2.5" transform="matrix(0.95, -0.31, 0.31, 0.95, -300.01, 97.48)"/>
    <rect x="124.84" y="885.87" width="5" height="23" rx="2.5" transform="translate(-675.76 511.63) rotate(-53.5)"/>
    <rect x="100.84" y="1031.87" width="5" height="23" rx="2.5" transform="translate(224.92 48.37) rotate(12.65)"/>
    <rect x="261.84" y="1084.87" width="5" height="23" rx="2.5" transform="translate(-780.22 702.39) rotate(-53.5)"/>
    <rect x="169.84" y="1111.87" width="5" height="23" rx="2.5" transform="translate(181.66 32.64) rotate(9.49)"/>
    <rect x="35.84" y="1103.87" width="5" height="23" rx="2.5" transform="translate(-783.46 399.47) rotate(-45)"/>
    <rect x="259.84" y="980.87" width="5" height="23" rx="2.5" transform="translate(242.7 11.68) rotate(14.05)"/>
    <rect x="188.84" y="972.87" width="5" height="23" rx="2.5" transform="translate(-719.77 598.33) rotate(-53.5)"/>
    <rect x="100.84" y="1030.87" width="5" height="23" rx="2.5" transform="translate(-802.05 551.09) rotate(-53.5)"/>
    <rect x="231.84" y="888.87" width="5" height="23" rx="2.5" transform="translate(562.33 77.7) rotate(35.63)"/>
    <rect x="232.23" y="887.95" width="5" height="23" rx="2.5" transform="translate(-430.24 289.48) rotate(-30.52)"/>
  </g>
  <g>
    <rect x="299.67" y="164.32" width="5" height="23" rx="2.5" transform="translate(-45.56 147.73) rotate(-18.01)"/>
    <rect x="408.42" y="96.93" width="5" height="23" rx="2.5" transform="translate(74.3 421.13) rotate(-53.71)"/>
    <rect x="384.95" y="243.01" width="5" height="23" rx="2.5" transform="translate(57.92 -31.8) rotate(12.44)"/>
    <rect x="546.14" y="295.43" width="5" height="23" rx="2.5" transform="translate(-29.5 613.13) rotate(-53.71)"/>
    <rect x="454.24" y="322.76" width="5" height="23" rx="2.5" transform="translate(53.94 -23.65) rotate(9.29)"/>
    <rect x="320.21" y="315.25" width="5" height="23" rx="2.5" transform="translate(-142.53 371.23) rotate(-45.21)"/>
    <rect x="543.76" y="191.44" width="5" height="23" rx="2.5" transform="translate(58.4 -79.1) rotate(13.84)"/>
    <rect x="472.74" y="183.7" width="5" height="23" rx="2.5" transform="translate(30.61 508.37) rotate(-53.71)"/>
    <rect x="384.95" y="242.01" width="5" height="23" rx="2.5" transform="translate(-52.22 461.41) rotate(-53.71)"/>
    <rect x="515.43" y="99.54" width="5" height="23" rx="2.5" transform="translate(154.22 -233.95) rotate(35.42)"/>
    <rect x="515.82" y="98.62" width="5" height="23" rx="2.5" transform="translate(10.49 325.96) rotate(-30.73)"/>
  </g>
  <g>
    <rect x="298.84" y="451.87" width="5" height="23" rx="2.5" transform="translate(-133.26 160.02) rotate(-17.81)"/>
    <rect x="407.84" y="384.87" width="5" height="23" rx="2.5" transform="translate(-158.36 536.13) rotate(-53.5)"/>
    <rect x="383.84" y="530.87" width="5" height="23" rx="2.5" transform="translate(122.11 -25.74) rotate(12.65)"/>
    <rect x="544.84" y="583.87" width="5" height="23" rx="2.5" transform="translate(-262.82 726.89) rotate(-53.5)"/>
    <rect x="452.84" y="610.87" width="5" height="23" rx="2.5" transform="translate(102.9 -20.9) rotate(9.49)"/>
    <rect x="318.84" y="602.87" width="5" height="23" rx="2.5" transform="translate(-346.31 452.84) rotate(-45)"/>
    <rect x="542.84" y="479.87" width="5" height="23" rx="2.5" transform="translate(129.56 -71.98) rotate(14.05)"/>
    <rect x="471.84" y="471.87" width="5" height="23" rx="2.5" transform="translate(-202.37 622.83) rotate(-53.5)"/>
    <rect x="383.84" y="529.87" width="5" height="23" rx="2.5" transform="translate(-284.65 575.59) rotate(-53.5)"/>
    <rect x="514.84" y="387.87" width="5" height="23" rx="2.5" transform="translate(323.47 -180.92) rotate(35.63)"/>
    <rect x="515.23" y="386.95" width="5" height="23" rx="2.5" transform="translate(-136.62 363.79) rotate(-30.52)"/>
  </g>
  <g>
    <rect x="299.84" y="738.87" width="5" height="23" rx="2.5" transform="translate(-220.97 174.07) rotate(-17.81)"/>
    <rect x="408.84" y="671.87" width="5" height="23" rx="2.5" transform="translate(-388.67 653.22) rotate(-53.5)"/>
    <rect x="384.84" y="817.87" width="5" height="23" rx="2.5" transform="translate(184.96 -19) rotate(12.65)"/>
    <rect x="545.84" y="870.87" width="5" height="23" rx="2.5" transform="translate(-493.12 843.98) rotate(-53.5)"/>
    <rect x="453.84" y="897.87" width="5" height="23" rx="2.5" transform="translate(150.25 -17.14) rotate(9.49)"/>
    <rect x="319.84" y="889.87" width="5" height="23" rx="2.5" transform="translate(-548.95 537.61) rotate(-45)"/>
    <rect x="543.84" y="766.87" width="5" height="23" rx="2.5" transform="translate(199.25 -63.64) rotate(14.05)"/>
    <rect x="472.84" y="758.87" width="5" height="23" rx="2.5" transform="translate(-432.67 739.92) rotate(-53.5)"/>
    <rect x="384.84" y="816.87" width="5" height="23" rx="2.5" transform="translate(-514.95 692.68) rotate(-53.5)"/>
    <rect x="515.84" y="674.87" width="5" height="23" rx="2.5" transform="translate(490.83 -127.78) rotate(35.63)"/>
    <rect x="516.23" y="673.95" width="5" height="23" rx="2.5" transform="translate(-282.22 404.06) rotate(-30.52)"/>
  </g>
  <rect x="298.84" y="1026.87" width="5" height="23" rx="2.5" transform="translate(-309.08 187.56) rotate(-17.81)"/>
  <rect x="407.84" y="959.87" width="5" height="23" rx="2.5" transform="translate(-620.58 769.11) rotate(-53.5)"/>
  <rect x="383.84" y="1105.87" width="5" height="23" rx="2.5" transform="translate(247.98 -11.79) rotate(12.65)"/>
  <rect x="542.84" y="1054.87" width="5" height="23" rx="2.5" transform="translate(269.12 -54.79) rotate(14.05)"/>
  <rect x="471.84" y="1046.87" width="5" height="23" rx="2.5" transform="translate(-664.59 855.81) rotate(-53.5)"/>
  <rect x="383.84" y="1104.87" width="5" height="23" rx="2.5" transform="translate(-746.87 808.57) rotate(-53.5)"/>
  <rect x="514.84" y="962.87" width="5" height="23" rx="2.5" transform="translate(658.41 -73.29) rotate(35.63)"/>
  <rect x="515.23" y="961.95" width="5" height="23" rx="2.5" transform="translate(-428.61 443.45) rotate(-30.52)"/>
  <g>
    <rect x="586.84" y="90.87" width="5" height="23" rx="2.5" transform="translate(-9.07 230.79) rotate(-17.81)"/>
    <rect x="695.84" y="23.87" width="5" height="23" rx="2.5" transform="translate(248.52 621.37) rotate(-53.5)"/>
    <rect x="671.84" y="169.87" width="5" height="23" rx="2.5" transform="translate(50.06 -97.54) rotate(12.65)"/>
    <rect x="832.84" y="222.87" width="5" height="23" rx="2.5" transform="translate(144.06 812.13) rotate(-53.5)"/>
    <rect x="740.84" y="249.87" width="5" height="23" rx="2.5" transform="translate(47.29 -73.35) rotate(9.49)"/>
    <rect x="606.84" y="241.87" width="5" height="23" rx="2.5" transform="translate(-6.69 550.76) rotate(-45)"/>
    <rect x="830.84" y="118.87" width="5" height="23" rx="2.5" transform="translate(50.56 -152.68) rotate(14.05)"/>
    <rect x="759.84" y="110.87" width="5" height="23" rx="2.5" transform="translate(204.51 708.07) rotate(-53.5)"/>
    <rect x="671.84" y="168.87" width="5" height="23" rx="2.5" transform="translate(122.24 660.83) rotate(-53.5)"/>
    <rect x="802.84" y="26.87" width="5" height="23" rx="2.5" transform="translate(167.09 -416.25) rotate(35.63)"/>
    <rect x="803.23" y="25.95" width="5" height="23" rx="2.5" transform="translate(86.6 460.03) rotate(-30.52)"/>
  </g>
  <g>
    <rect x="585.84" y="387.87" width="5" height="23" rx="2.5" transform="translate(-99.94 244.72) rotate(-17.81)"/>
    <rect x="694.84" y="320.87" width="5" height="23" rx="2.5" transform="translate(9.37 740.91) rotate(-53.5)"/>
    <rect x="670.84" y="466.87" width="5" height="23" rx="2.5" transform="translate(115.06 -90.12) rotate(12.65)"/>
    <rect x="831.84" y="519.87" width="5" height="23" rx="2.5" transform="translate(-95.09 931.67) rotate(-53.5)"/>
    <rect x="739.84" y="546.87" width="5" height="23" rx="2.5" transform="translate(96.27 -69.12) rotate(9.49)"/>
    <rect x="605.84" y="538.87" width="5" height="23" rx="2.5" transform="translate(-216.99 637.04) rotate(-45)"/>
    <rect x="829.84" y="415.87" width="5" height="23" rx="2.5" transform="translate(122.61 -143.55) rotate(14.05)"/>
    <rect x="758.84" y="407.87" width="5" height="23" rx="2.5" transform="translate(-34.64 827.6) rotate(-53.5)"/>
    <rect x="670.84" y="465.87" width="5" height="23" rx="2.5" transform="translate(-116.92 780.37) rotate(-53.5)"/>
    <rect x="801.84" y="323.87" width="5" height="23" rx="2.5" transform="translate(339.9 -360.08) rotate(35.63)"/>
    <rect x="802.23" y="322.95" width="5" height="23" rx="2.5" transform="translate(-64.36 500.67) rotate(-30.52)"/>
  </g>
  <rect x="1526.84" y="-27.13" width="5" height="23" rx="2.5" transform="translate(27.67 -289.5) rotate(12.65)"/>
  <rect x="1687.84" y="25.87" width="5" height="23" rx="2.5" transform="translate(648.85 1419.61) rotate(-53.5)"/>
  <rect x="1595.84" y="52.87" width="5" height="23" rx="2.5" transform="translate(26.51 -217.08) rotate(9.49)"/>
  <rect x="1461.84" y="44.87" width="5" height="23" rx="2.5" transform="translate(383.04 1097.63) rotate(-45)"/>
  <rect x="1526.84" y="-28.13" width="5" height="23" rx="2.5" transform="translate(627.02 1268.31) rotate(-53.5)"/>
  <g>
    <rect x="585.84" y="953.87" width="5" height="23" rx="2.5" transform="translate(-273.02 271.83) rotate(-17.81)"/>
    <rect x="694.84" y="886.87" width="5" height="23" rx="2.5" transform="translate(-445.62 970.24) rotate(-53.5)"/>
    <rect x="670.84" y="1032.87" width="5" height="23" rx="2.5" transform="translate(238.96 -76.39) rotate(12.65)"/>
    <rect x="831.84" y="1085.87" width="5" height="23" rx="2.5" transform="translate(-550.07 1161) rotate(-53.5)"/>
    <rect x="739.84" y="1112.87" width="5" height="23" rx="2.5" transform="translate(189.63 -61.37) rotate(9.49)"/>
    <rect x="605.84" y="1104.87" width="5" height="23" rx="2.5" transform="translate(-617.21 802.82) rotate(-45)"/>
    <rect x="829.84" y="981.87" width="5" height="23" rx="2.5" transform="translate(259.98 -126.63) rotate(14.05)"/>
    <rect x="758.84" y="973.87" width="5" height="23" rx="2.5" transform="translate(-489.62 1056.94) rotate(-53.5)"/>
    <rect x="670.84" y="1031.87" width="5" height="23" rx="2.5" transform="translate(-571.9 1009.7) rotate(-53.5)"/>
    <rect x="801.84" y="889.87" width="5" height="23" rx="2.5" transform="translate(669.6 -254.14) rotate(35.63)"/>
    <rect x="802.23" y="888.95" width="5" height="23" rx="2.5" transform="translate(-351.78 579.08) rotate(-30.52)"/>
  </g>
  <g>
    <rect x="873.84" y="160.87" width="5" height="23" rx="2.5" transform="translate(-16.73 321.91) rotate(-17.81)"/>
    <rect x="982.84" y="93.87" width="5" height="23" rx="2.5" transform="translate(308.53 880.44) rotate(-53.5)"/>
    <rect x="958.84" y="239.87" width="5" height="23" rx="2.5" transform="translate(72.35 -158.68) rotate(12.65)"/>
    <rect x="1119.84" y="292.87" width="5" height="23" rx="2.5" transform="translate(204.08 1071.2) rotate(-53.5)"/>
    <rect x="1027.84" y="319.87" width="5" height="23" rx="2.5" transform="translate(62.77 -119.73) rotate(9.49)"/>
    <rect x="893.84" y="311.87" width="5" height="23" rx="2.5" transform="translate(27.87 774.2) rotate(-45)"/>
    <rect x="1117.84" y="188.87" width="5" height="23" rx="2.5" transform="translate(76.13 -220.24) rotate(14.05)"/>
    <rect x="1046.84" y="180.87" width="5" height="23" rx="2.5" transform="matrix(0.59, -0.8, 0.8, 0.59, 264.53, 967.14)"/>
    <rect x="958.84" y="238.87" width="5" height="23" rx="2.5" transform="matrix(0.59, -0.8, 0.8, 0.59, 182.25, 919.9)"/>
    <rect x="1089.84" y="96.87" width="5" height="23" rx="2.5" transform="translate(261.58 -570.33) rotate(35.63)"/>
    <rect x="1090.23" y="95.95" width="5" height="23" rx="2.5" transform="matrix(0.86, -0.51, 0.51, 0.86, 90.82, 615.47)"/>
  </g>
  <g>
    <rect x="872.84" y="448.87" width="5" height="23" rx="2.5" transform="translate(-104.85 335.4) rotate(-17.81)"/>
    <rect x="981.84" y="381.87" width="5" height="23" rx="2.5" transform="translate(76.62 996.33) rotate(-53.5)"/>
    <rect x="957.84" y="527.87" width="5" height="23" rx="2.5" transform="translate(135.37 -151.47) rotate(12.65)"/>
    <rect x="1118.84" y="580.87" width="5" height="23" rx="2.5" transform="matrix(0.59, -0.8, 0.8, 0.59, -27.84, 1187.09)"/>
    <rect x="1026.84" y="607.87" width="5" height="23" rx="2.5" transform="translate(110.26 -115.62) rotate(9.49)"/>
    <rect x="892.84" y="599.87" width="5" height="23" rx="2.5" transform="translate(-176.07 857.85) rotate(-45)"/>
    <rect x="1116.84" y="476.87" width="5" height="23" rx="2.5" transform="translate(146 -211.38) rotate(14.05)"/>
    <rect x="1045.84" y="468.87" width="5" height="23" rx="2.5" transform="translate(32.61 1083.03) rotate(-53.5)"/>
    <rect x="957.84" y="526.87" width="5" height="23" rx="2.5" transform="translate(-49.66 1035.79) rotate(-53.5)"/>
    <rect x="1088.84" y="384.87" width="5" height="23" rx="2.5" transform="translate(429.16 -515.84) rotate(35.63)"/>
    <rect x="1089.23" y="383.95" width="5" height="23" rx="2.5" transform="translate(-55.57 654.86) rotate(-30.52)"/>
  </g>
  <rect x="873.84" y="735.87" width="5" height="23" rx="2.5" transform="translate(-192.56 349.45) rotate(-17.81)"/>
  <rect x="982.84" y="668.87" width="5" height="23" rx="2.5" transform="translate(-153.68 1113.42) rotate(-53.5)"/>
  <rect x="958.84" y="814.87" width="5" height="23" rx="2.5" transform="translate(198.23 -144.73) rotate(12.65)"/>
  <rect x="1119.84" y="867.87" width="5" height="23" rx="2.5" transform="translate(-258.14 1304.18) rotate(-53.5)"/>
  <rect x="1027.84" y="894.87" width="5" height="23" rx="2.5" transform="translate(157.62 -111.86) rotate(9.49)"/>
  <rect x="893.84" y="886.87" width="5" height="23" rx="2.5" transform="translate(-378.71 942.61) rotate(-45)"/>
  <rect x="1117.84" y="763.87" width="5" height="23" rx="2.5" transform="translate(215.68 -203.05) rotate(14.05)"/>
  <rect x="1046.84" y="755.87" width="5" height="23" rx="2.5" transform="translate(-197.69 1200.12) rotate(-53.5)"/>
  <rect x="958.84" y="813.87" width="5" height="23" rx="2.5" transform="translate(-279.97 1152.88) rotate(-53.5)"/>
  <rect x="1076.84" y="672.87" width="5" height="23" rx="2.5" transform="translate(594.67 -454.94) rotate(35.63)"/>
  <rect x="1076.23" y="673.95" width="5" height="23" rx="2.5" transform="translate(-204.64 688.44) rotate(-30.52)"/>
  <g>
    <rect x="1150.84" y="953.87" width="5" height="23" rx="2.5" transform="translate(-245.95 444.6) rotate(-17.81)"/>
    <rect x="1259.84" y="886.87" width="5" height="23" rx="2.5" transform="translate(-216.69 1424.42) rotate(-53.5)"/>
    <rect x="1235.84" y="1032.87" width="5" height="23" rx="2.5" transform="translate(252.67 -200.08) rotate(12.65)"/>
    <rect x="1396.84" y="1085.87" width="5" height="23" rx="2.5" transform="translate(-321.15 1615.18) rotate(-53.5)"/>
    <rect x="1304.84" y="1112.87" width="5" height="23" rx="2.5" transform="translate(197.37 -154.56) rotate(9.49)"/>
    <rect x="1170.84" y="1104.87" width="5" height="23" rx="2.5" transform="translate(-451.73 1202.33) rotate(-45)"/>
    <rect x="1394.84" y="981.87" width="5" height="23" rx="2.5" transform="translate(276.87 -263.76) rotate(14.05)"/>
    <rect x="1323.84" y="973.87" width="5" height="23" rx="2.5" transform="translate(-260.69 1511.11) rotate(-53.5)"/>
    <rect x="1235.84" y="1031.87" width="5" height="23" rx="2.5" transform="translate(-342.97 1463.88) rotate(-53.5)"/>
    <rect x="1366.84" y="889.87" width="5" height="23" rx="2.5" transform="translate(775.35 -583.25) rotate(35.63)"/>
    <rect x="1367.23" y="888.95" width="5" height="23" rx="2.5" transform="matrix(0.86, -0.51, 0.51, 0.86, -273.51, 866)"/>
  </g>
  <g>
    <rect x="1436.84" y="166.87" width="5" height="23" rx="2.5" transform="translate(8.4 494.35) rotate(-17.81)"/>
    <rect x="1545.84" y="99.87" width="5" height="23" rx="2.5" transform="translate(531.83 1335.45) rotate(-53.5)"/>
    <rect x="1521.84" y="245.87" width="5" height="23" rx="2.5" transform="translate(87.32 -281.78) rotate(12.65)"/>
    <rect x="1682.84" y="298.87" width="5" height="23" rx="2.5" transform="matrix(0.59, -0.8, 0.8, 0.59, 427.37, 1526.2)"/>
    <rect x="1590.84" y="325.87" width="5" height="23" rx="2.5" transform="translate(71.47 -212.52) rotate(9.49)"/>
    <rect x="1456.84" y="317.87" width="5" height="23" rx="2.5" transform="translate(188.53 1174.06) rotate(-45)"/>
    <rect x="1680.84" y="194.87" width="5" height="23" rx="2.5" transform="translate(94.42 -356.7) rotate(14.05)"/>
    <rect x="1609.84" y="186.87" width="5" height="23" rx="2.5" transform="matrix(0.59, -0.8, 0.8, 0.59, 487.82, 1422.14)"/>
    <rect x="1521.84" y="244.87" width="5" height="23" rx="2.5" transform="translate(405.54 1374.9) rotate(-53.5)"/>
    <rect x="1652.84" y="102.87" width="5" height="23" rx="2.5" transform="matrix(0.81, 0.58, -0.58, 0.81, 370.45, -897.15)"/>
    <rect x="1653.23" y="101.95" width="5" height="23" rx="2.5" transform="matrix(0.86, -0.51, 0.51, 0.86, 165.77, 902.2)"/>
  </g>
  <g>
    <rect x="1435.84" y="454.87" width="5" height="23" rx="2.5" transform="translate(-79.71 507.84) rotate(-17.81)"/>
    <rect x="1544.84" y="387.87" width="5" height="23" rx="2.5" transform="translate(299.91 1451.33) rotate(-53.5)"/>
    <rect x="1520.84" y="533.87" width="5" height="23" rx="2.5" transform="translate(150.34 -274.58) rotate(12.65)"/>
    <rect x="1681.84" y="586.87" width="5" height="23" rx="2.5" transform="translate(195.45 1642.09) rotate(-53.5)"/>
    <rect x="1589.84" y="613.87" width="5" height="23" rx="2.5" transform="translate(118.97 -208.41) rotate(9.49)"/>
    <rect x="1455.84" y="605.87" width="5" height="23" rx="2.5" transform="translate(-15.41 1257.7) rotate(-45)"/>
    <rect x="1679.84" y="482.87" width="5" height="23" rx="2.5" transform="translate(164.29 -347.85) rotate(14.05)"/>
    <rect x="1608.84" y="474.87" width="5" height="23" rx="2.5" transform="translate(255.91 1538.03) rotate(-53.5)"/>
    <rect x="1520.84" y="532.87" width="5" height="23" rx="2.5" transform="translate(173.63 1490.79) rotate(-53.5)"/>
    <rect x="1651.84" y="390.87" width="5" height="23" rx="2.5" transform="translate(538.03 -842.67) rotate(35.63)"/>
    <rect x="1652.23" y="389.95" width="5" height="23" rx="2.5" transform="translate(19.38 941.59) rotate(-30.52)"/>
  </g>
  <g>
    <rect x="1436.84" y="741.87" width="5" height="23" rx="2.5" transform="translate(-167.43 521.9) rotate(-17.81)"/>
    <rect x="1545.84" y="674.87" width="5" height="23" rx="2.5" transform="translate(69.61 1568.42) rotate(-53.5)"/>
    <rect x="1521.84" y="820.87" width="5" height="23" rx="2.5" transform="translate(213.2 -267.83) rotate(12.65)"/>
    <rect x="1682.84" y="873.87" width="5" height="23" rx="2.5" transform="translate(-34.85 1759.18) rotate(-53.5)"/>
    <rect x="1590.84" y="900.87" width="5" height="23" rx="2.5" transform="translate(166.32 -204.64) rotate(9.49)"/>
    <rect x="1456.84" y="892.87" width="5" height="23" rx="2.5" transform="translate(-218.06 1342.47) rotate(-45)"/>
    <rect x="1680.84" y="769.87" width="5" height="23" rx="2.5" transform="translate(233.97 -339.51) rotate(14.05)"/>
    <rect x="1609.84" y="761.87" width="5" height="23" rx="2.5" transform="translate(25.6 1655.12) rotate(-53.5)"/>
    <rect x="1521.84" y="819.87" width="5" height="23" rx="2.5" transform="translate(-56.67 1607.88) rotate(-53.5)"/>
    <rect x="1652.84" y="677.87" width="5" height="23" rx="2.5" transform="translate(705.4 -789.53) rotate(35.63)"/>
    <rect x="1653.23" y="676.95" width="5" height="23" rx="2.5" transform="translate(-126.23 981.86) rotate(-30.52)"/>
  </g>
  <rect x="1435.84" y="1029.87" width="5" height="23" rx="2.5" transform="translate(-255.54 535.38) rotate(-17.81)"/>
  <rect x="1544.84" y="962.87" width="5" height="23" rx="2.5" transform="translate(-162.31 1684.31) rotate(-53.5)"/>
  <rect x="1520.84" y="1108.87" width="5" height="23" rx="2.5" transform="translate(276.22 -260.63) rotate(12.65)"/>
  <rect x="1679.84" y="1057.87" width="5" height="23" rx="2.5" transform="translate(303.84 -330.66) rotate(14.05)"/>
  <rect x="1608.84" y="1049.87" width="5" height="23" rx="2.5" transform="translate(-206.31 1771.01) rotate(-53.5)"/>
  <rect x="1520.84" y="1107.87" width="5" height="23" rx="2.5" transform="translate(-288.59 1723.77) rotate(-53.5)"/>
  <rect x="1651.84" y="965.87" width="5" height="23" rx="2.5" transform="translate(872.97 -735.04) rotate(35.63)"/>
  <rect x="1652.23" y="964.95" width="5" height="23" rx="2.5" transform="translate(-272.62 1021.25) rotate(-30.52)"/>
  <g>
    <rect x="1738.84" y="89.87" width="5" height="23" rx="2.5" transform="translate(46.41 583.01) rotate(-17.81)"/>
    <rect x="1847.84" y="22.87" width="5" height="23" rx="2.5" transform="translate(716.09 1547.01) rotate(-53.5)"/>
    <rect x="1823.84" y="168.87" width="5" height="23" rx="2.5" transform="translate(77.79 -349.76) rotate(12.65)"/>
    <rect x="1984.84" y="221.87" width="5" height="23" rx="2.5" transform="translate(611.63 1737.77) rotate(-53.5)"/>
    <rect x="1892.84" y="248.87" width="5" height="23" rx="2.5" transform="matrix(0.99, 0.16, -0.16, 0.99, 62.91, -263.39)"/>
    <rect x="1758.84" y="240.87" width="5" height="23" rx="2.5" transform="translate(331.43 1365.05) rotate(-45)"/>
    <rect x="1982.84" y="117.87" width="5" height="23" rx="2.5" transform="translate(84.76 -432.3) rotate(14.05)"/>
    <rect x="1911.84" y="109.87" width="5" height="23" rx="2.5" transform="matrix(0.59, -0.8, 0.8, 0.59, 672.08, 1633.71)"/>
    <rect x="1823.84" y="167.87" width="5" height="23" rx="2.5" transform="translate(589.8 1586.47) rotate(-53.5)"/>
    <rect x="1954.84" y="25.87" width="5" height="23" rx="2.5" transform="translate(382.13 -1087.48) rotate(35.63)"/>
    <rect x="1955.23" y="24.95" width="5" height="23" rx="2.5" transform="matrix(0.86, -0.51, 0.51, 0.86, 246.71, 1044.9)"/>
  </g>
  <g>
    <rect x="1737.84" y="377.87" width="5" height="23" rx="2.5" transform="translate(-41.7 596.5) rotate(-17.81)"/>
    <rect x="1846.84" y="310.87" width="5" height="23" rx="2.5" transform="translate(484.17 1662.9) rotate(-53.5)"/>
    <rect x="1822.84" y="456.87" width="5" height="23" rx="2.5" transform="translate(140.81 -342.56) rotate(12.65)"/>
    <rect x="1983.84" y="509.87" width="5" height="23" rx="2.5" transform="translate(379.71 1853.66) rotate(-53.5)"/>
    <rect x="1891.84" y="536.87" width="5" height="23" rx="2.5" transform="translate(110.4 -259.28) rotate(9.49)"/>
    <rect x="1757.84" y="528.87" width="5" height="23" rx="2.5" transform="translate(127.49 1448.7) rotate(-45)"/>
    <rect x="1981.84" y="405.87" width="5" height="23" rx="2.5" transform="translate(154.63 -423.45) rotate(14.05)"/>
    <rect x="1910.84" y="397.87" width="5" height="23" rx="2.5" transform="translate(440.17 1749.6) rotate(-53.5)"/>
    <rect x="1822.84" y="455.87" width="5" height="23" rx="2.5" transform="translate(357.89 1702.36) rotate(-53.5)"/>
    <rect x="1953.84" y="313.87" width="5" height="23" rx="2.5" transform="translate(549.7 -1033) rotate(35.63)"/>
    <rect x="1954.23" y="312.95" width="5" height="23" rx="2.5" transform="matrix(0.86, -0.51, 0.51, 0.86, 100.32, 1084.29)"/>
  </g>
  <g>
    <rect x="1738.84" y="664.87" width="5" height="23" rx="2.5" transform="translate(-129.41 610.55) rotate(-17.81)"/>
    <rect x="1847.84" y="597.87" width="5" height="23" rx="2.5" transform="translate(253.87 1779.99) rotate(-53.5)"/>
    <rect x="1823.84" y="743.87" width="5" height="23" rx="2.5" transform="translate(203.67 -335.82) rotate(12.65)"/>
    <rect x="1984.84" y="796.87" width="5" height="23" rx="2.5" transform="translate(149.41 1970.75) rotate(-53.5)"/>
    <rect x="1892.84" y="823.87" width="5" height="23" rx="2.5" transform="translate(157.76 -255.51) rotate(9.49)"/>
    <rect x="1758.84" y="815.87" width="5" height="23" rx="2.5" transform="translate(-75.15 1533.46) rotate(-45)"/>
    <rect x="1982.84" y="692.87" width="5" height="23" rx="2.5" transform="translate(224.31 -415.11) rotate(14.05)"/>
    <rect x="1911.84" y="684.87" width="5" height="23" rx="2.5" transform="translate(209.86 1866.69) rotate(-53.5)"/>
    <rect x="1823.84" y="742.87" width="5" height="23" rx="2.5" transform="translate(127.59 1819.45) rotate(-53.5)"/>
    <rect x="1954.84" y="600.87" width="5" height="23" rx="2.5" transform="translate(717.07 -979.86) rotate(35.63)"/>
    <rect x="1955.23" y="599.95" width="5" height="23" rx="2.5" transform="translate(-45.29 1124.56) rotate(-30.52)"/>
  </g>
  <g>
    <rect x="1737.84" y="952.87" width="5" height="23" rx="2.5" transform="translate(-217.53 624.04) rotate(-17.81)"/>
    <rect x="1846.84" y="885.87" width="5" height="23" rx="2.5" transform="translate(21.95 1895.88) rotate(-53.5)"/>
    <rect x="1822.84" y="1031.87" width="5" height="23" rx="2.5" transform="translate(266.69 -328.61) rotate(12.65)"/>
    <rect x="1983.84" y="1084.87" width="5" height="23" rx="2.5" transform="translate(-82.51 2086.64) rotate(-53.5)"/>
    <rect x="1891.84" y="1111.87" width="5" height="23" rx="2.5" transform="matrix(0.99, 0.16, -0.16, 0.99, 205.25, -251.4)"/>
    <rect x="1757.84" y="1103.87" width="5" height="23" rx="2.5" transform="translate(-279.09 1617.11) rotate(-45)"/>
    <rect x="1981.84" y="980.87" width="5" height="23" rx="2.5" transform="translate(294.18 -406.25) rotate(14.05)"/>
    <rect x="1910.84" y="972.87" width="5" height="23" rx="2.5" transform="translate(-22.05 1982.57) rotate(-53.5)"/>
    <rect x="1822.84" y="1030.87" width="5" height="23" rx="2.5" transform="translate(-104.33 1935.33) rotate(-53.5)"/>
    <rect x="1953.84" y="888.87" width="5" height="23" rx="2.5" transform="translate(884.64 -925.37) rotate(35.63)"/>
    <rect x="1954.23" y="887.95" width="5" height="23" rx="2.5" transform="translate(-191.68 1163.95) rotate(-30.52)"/>
  </g>
  <rect x="872.84" y="1023.87" width="5" height="23" rx="2.5" transform="translate(-280.67 362.94) rotate(-17.81)"/>
  <rect x="981.84" y="956.87" width="5" height="23" rx="2.5" transform="translate(-385.6 1229.31) rotate(-53.5)"/>
  <rect x="957.84" y="1102.87" width="5" height="23" rx="2.5" transform="translate(261.25 -137.52) rotate(12.65)"/>
  <rect x="1116.84" y="1051.87" width="5" height="23" rx="2.5" transform="translate(285.55 -194.19) rotate(14.05)"/>
  <rect x="1045.84" y="1043.87" width="5" height="23" rx="2.5" transform="translate(-429.6 1316) rotate(-53.5)"/>
  <rect x="957.84" y="1101.87" width="5" height="23" rx="2.5" transform="translate(-511.88 1268.77) rotate(-53.5)"/>
  <rect x="1088.84" y="959.87" width="5" height="23" rx="2.5" transform="translate(764.1 -408.21) rotate(35.63)"/>
  <rect x="1089.23" y="958.95" width="5" height="23" rx="2.5" transform="translate(-347.57 734.52) rotate(-30.52)"/>
  <g>
    <rect x="1150.84" y="378.87" width="5" height="23" rx="2.5" transform="translate(-70.12 417.05) rotate(-17.81)"/>
    <rect x="1259.84" y="311.87" width="5" height="23" rx="2.5" transform="translate(245.53 1191.44) rotate(-53.5)"/>
    <rect x="1235.84" y="457.87" width="5" height="23" rx="2.5" transform="translate(126.79 -214.03) rotate(12.65)"/>
    <rect x="1396.84" y="510.87" width="5" height="23" rx="2.5" transform="translate(141.07 1382.2) rotate(-53.5)"/>
    <rect x="1304.84" y="537.87" width="5" height="23" rx="2.5" transform="translate(102.53 -162.44) rotate(9.49)"/>
    <rect x="1170.84" y="529.87" width="5" height="23" rx="2.5" transform="translate(-45.14 1033.92) rotate(-45)"/>
    <rect x="1394.84" y="406.87" width="5" height="23" rx="2.5" transform="translate(137.32 -280.95) rotate(14.05)"/>
    <rect x="1323.84" y="398.87" width="5" height="23" rx="2.5" transform="translate(201.52 1278.14) rotate(-53.5)"/>
    <rect x="1235.84" y="456.87" width="5" height="23" rx="2.5" transform="translate(119.24 1230.9) rotate(-53.5)"/>
    <rect x="1366.84" y="314.87" width="5" height="23" rx="2.5" transform="translate(440.41 -690.88) rotate(35.63)"/>
    <rect x="1367.23" y="313.95" width="5" height="23" rx="2.5" transform="translate(18.49 786.34) rotate(-30.52)"/>
  </g>
  <g>
    <rect x="1151.84" y="665.87" width="5" height="23" rx="2.5" transform="translate(-157.84 431.11) rotate(-17.81)"/>
    <rect x="1260.84" y="598.87" width="5" height="23" rx="2.5" transform="translate(15.23 1308.53) rotate(-53.5)"/>
    <rect x="1236.84" y="744.87" width="5" height="23" rx="2.5" transform="translate(189.65 -207.29) rotate(12.65)"/>
    <rect x="1397.84" y="797.87" width="5" height="23" rx="2.5" transform="translate(-89.23 1499.29) rotate(-53.5)"/>
    <rect x="1305.84" y="824.87" width="5" height="23" rx="2.5" transform="translate(149.88 -158.67) rotate(9.49)"/>
    <rect x="1171.84" y="816.87" width="5" height="23" rx="2.5" transform="translate(-247.79 1118.69) rotate(-45)"/>
    <rect x="1395.84" y="693.87" width="5" height="23" rx="2.5" transform="translate(207.01 -272.61) rotate(14.05)"/>
    <rect x="1324.84" y="685.87" width="5" height="23" rx="2.5" transform="translate(-28.78 1395.23) rotate(-53.5)"/>
    <rect x="1236.84" y="743.87" width="5" height="23" rx="2.5" transform="translate(-111.06 1347.99) rotate(-53.5)"/>
    <rect x="1367.84" y="601.87" width="5" height="23" rx="2.5" transform="translate(607.78 -637.74) rotate(35.63)"/>
    <rect x="1368.23" y="600.95" width="5" height="23" rx="2.5" transform="translate(-127.12 826.61) rotate(-30.52)"/>
  </g>
  <g>
    <rect x="1151.84" y="90.87" width="5" height="23" rx="2.5" transform="translate(17.99 403.56) rotate(-17.81)"/>
    <rect x="1260.84" y="23.87" width="5" height="23" rx="2.5" transform="translate(477.44 1075.55) rotate(-53.5)"/>
    <rect x="1236.84" y="169.87" width="5" height="23" rx="2.5" transform="translate(63.77 -221.23) rotate(12.65)"/>
    <rect x="1397.84" y="222.87" width="5" height="23" rx="2.5" transform="translate(372.99 1266.31) rotate(-53.5)"/>
    <rect x="1305.84" y="249.87" width="5" height="23" rx="2.5" transform="translate(55.03 -166.55) rotate(9.49)"/>
    <rect x="1171.84" y="241.87" width="5" height="23" rx="2.5" transform="translate(158.8 950.27) rotate(-45)"/>
    <rect x="1395.84" y="118.87" width="5" height="23" rx="2.5" transform="translate(67.45 -289.8) rotate(14.05)"/>
    <rect x="1324.84" y="110.87" width="5" height="23" rx="2.5" transform="matrix(0.59, -0.8, 0.8, 0.59, 433.44, 1162.25)"/>
    <rect x="1236.84" y="168.87" width="5" height="23" rx="2.5" transform="matrix(0.59, -0.8, 0.8, 0.59, 351.16, 1115.01)"/>
    <rect x="1367.84" y="26.87" width="5" height="23" rx="2.5" transform="translate(272.84 -745.37) rotate(35.63)"/>
    <rect x="1368.23" y="25.95" width="5" height="23" rx="2.5" transform="translate(164.88 746.95) rotate(-30.52)"/>
  </g>
  <g>
    <circle cx="485.91" cy="99.07" r="25.05"/>
    <circle class="b" cx="481.18" cy="97.17" r="25.05"/>
  </g>
  <g>
    <circle cx="1074.91" cy="104.07" r="25.05"/>
    <circle class="b" cx="1070.18" cy="102.17" r="25.05"/>
  </g>
  <g>
    <rect x="585.84" y="670.87" width="5" height="23" rx="2.5" transform="translate(-186.48 258.27) rotate(-17.81)"/>
    <rect x="694.84" y="603.87" width="5" height="23" rx="2.5" transform="translate(-218.12 855.57) rotate(-53.5)"/>
    <rect x="670.84" y="749.87" width="5" height="23" rx="2.5" transform="translate(177.01 -83.26) rotate(12.65)"/>
    <rect x="831.84" y="802.87" width="5" height="23" rx="2.5" transform="translate(-322.58 1046.33) rotate(-53.5)"/>
    <rect x="739.84" y="829.87" width="5" height="23" rx="2.5" transform="translate(142.95 -65.24) rotate(9.49)"/>
    <rect x="605.84" y="821.87" width="5" height="23" rx="2.5" transform="translate(-417.1 719.93) rotate(-45)"/>
    <rect x="829.84" y="698.87" width="5" height="23" rx="2.5" transform="translate(191.3 -135.09) rotate(14.05)"/>
    <rect x="758.84" y="690.87" width="5" height="23" rx="2.5" transform="translate(-262.13 942.27) rotate(-53.5)"/>
    <rect x="670.84" y="748.87" width="5" height="23" rx="2.5" transform="translate(-344.41 895.03) rotate(-53.5)"/>
    <rect x="801.84" y="606.87" width="5" height="23" rx="2.5" transform="translate(504.75 -307.11) rotate(35.63)"/>
    <rect x="802.23" y="605.95" width="5" height="23" rx="2.5" transform="matrix(0.86, -0.51, 0.51, 0.86, -208.07, 539.87)"/>
    <rect x="946" y="-31.55" width="5" height="23" rx="2.5" transform="translate(12.62 -162.45) rotate(12.65)"/>
    <rect x="1107" y="21.45" width="5" height="23" rx="2.5" transform="translate(417.06 950.91) rotate(-53.5)"/>
    <rect x="1015" y="48.45" width="5" height="23" rx="2.5" transform="translate(17.83 -121.33) rotate(9.49)"/>
    <rect x="881" y="40.45" width="5" height="23" rx="2.5" transform="translate(216.04 685.62) rotate(-45)"/>
    <rect x="946" y="-32.55" width="5" height="23" rx="2.5" transform="translate(395.23 799.61) rotate(-53.5)"/>
    <rect x="372.84" y="-29.13" width="5" height="23" rx="2.5" transform="translate(-0.76 -36.92) rotate(12.65)"/>
    <rect x="533.84" y="23.87" width="5" height="23" rx="2.5" transform="translate(182.88 491.15) rotate(-53.5)"/>
    <rect x="441.84" y="50.87" width="5" height="23" rx="2.5" transform="translate(10.37 -26.76) rotate(9.49)"/>
    <rect x="307.84" y="42.87" width="5" height="23" rx="2.5" transform="translate(46.45 281.05) rotate(-45)"/>
    <rect x="372.84" y="-30.13" width="5" height="23" rx="2.5" transform="matrix(0.59, -0.8, 0.8, 0.59, 161.05, 339.85)"/>
  </g>
</svg>
